<svg width="65" height="16" viewBox="0 0 65 16" fill="none" xmlns="http://www.w3.org/2000/svg">
<path d="M28.209 2.92008C26.5298 2.92232 25.6136 3.90827 25.6158 5.63181L25.623 11.2333C25.6253 12.9569 26.5438 13.9406 28.2233 13.9383C29.9029 13.9361 30.8188 12.9501 30.8165 11.2266L30.8093 5.62508C30.8071 3.90154 29.8885 2.91783 28.209 2.92008ZM28.2215 12.3996C27.6774 12.4003 27.3347 12.1082 27.3339 11.3388L27.3263 5.52185C27.3252 4.75246 27.6672 4.45959 28.2113 4.45885C28.7554 4.4581 29.0981 4.75022 29.0992 5.5196L29.1068 11.3366C29.1079 12.1059 28.7659 12.3988 28.2218 12.3996H28.2215ZM23.1028 9.80527L23.1047 11.344C23.1058 12.1134 22.7638 12.391 22.2197 12.3917C21.6756 12.3925 21.3333 12.1157 21.3322 11.3463L21.3246 5.52933C21.3235 4.75994 21.6654 4.46707 22.2095 4.46633C22.7536 4.46558 23.0963 4.7577 23.0975 5.52708L23.099 6.68135L24.7162 6.67948L24.7147 5.63294C24.7124 3.90939 23.8403 2.92569 22.1612 2.92756C20.482 2.9298 19.6126 3.91575 19.6149 5.63929L19.622 11.2408C19.6243 12.9643 20.4964 13.9481 22.1755 13.9462C23.8547 13.9439 24.7241 12.958 24.7218 11.2344L24.72 9.8034L23.1028 9.80564V9.80527ZM11.4545 5.18821L7.78223 8.83204C7.73198 8.88216 7.76788 8.96744 7.83891 8.96706L11.5157 8.9622C11.5599 8.9622 11.5958 8.92667 11.5958 8.88291L11.5909 5.24357C11.5909 5.17287 11.5044 5.13772 11.4541 5.18784L11.4545 5.18821ZM16.3726 11.6246L14.1183 11.6276C14.1025 11.6276 14.0892 11.6406 14.0892 11.6564L14.0923 14.0075C14.0923 14.0232 14.0794 14.0363 14.0632 14.0363L11.5376 14.0397C11.5218 14.0397 11.5086 14.027 11.5086 14.0109L11.5055 11.6597C11.5055 11.644 11.4923 11.6309 11.4764 11.6309L4.09672 11.6403C4.03173 11.6403 3.97921 11.5883 3.97921 11.5243L3.97656 9.38112C3.97656 9.38112 3.97656 9.37962 3.97656 9.3785C3.97505 9.3598 3.95616 9.10321 4.16322 8.89749L11.5123 1.6061C11.5176 1.60086 11.5252 1.5975 11.5327 1.5975L13.9211 1.5945C13.9249 1.5945 13.9287 1.59525 13.9324 1.59675C13.9638 1.60984 14.1142 1.6824 14.1142 1.88139L14.1233 8.96781C14.1233 8.98352 14.1365 8.99661 14.1523 8.99661L16.3688 8.99362C16.3847 8.99362 16.3979 8.98053 16.3979 8.96482L16.3888 2.0224C16.3873 0.908527 15.4654 -0.00149429 14.3401 1.84216e-06L4.00755 0.013467C3.99168 0.013467 3.97845 0.0265582 3.97845 0.0422675L3.98563 5.64229C3.98563 5.66772 4.01699 5.68081 4.03513 5.66248L8.2262 1.52643C8.23149 1.52119 8.23905 1.5182 8.24661 1.5182L10.4306 1.51558C10.4563 1.51558 10.4695 1.54625 10.4513 1.56458L3.6399 8.43369C3.62857 8.44491 3.61005 8.44529 3.59872 8.43369L2.31593 7.16722C2.31064 7.16198 2.30724 7.1545 2.30724 7.14702L2.29817 0.0605951C2.29817 0.0433896 2.28268 0.0299245 2.26568 0.0321687C1.31879 0.151485 0.571791 0.923489 0.5 1.87391V6.75167L0.509446 14.0214C0.51058 14.9912 1.21035 15.8066 2.13419 16H14.6987C15.6645 15.838 16.4058 15.001 16.4043 14.0012L16.4013 11.6541C16.4013 11.6384 16.3881 11.6253 16.3722 11.6253L16.3726 11.6246ZM56.2747 3.0076L56.283 9.45555L54.5177 3.00984L52.3719 3.01246L52.3859 13.7846L53.9252 13.7827L53.915 5.98041L56.0551 13.7797L57.8121 13.7775L57.7981 3.00535L56.2743 3.00723L56.2747 3.0076ZM36.6988 3.03266L35.5426 10.6824L34.273 3.03565L31.8941 3.03864L31.9081 13.8108L33.401 13.8089L33.3912 6.19137L34.6762 13.8074L36.2934 13.8052L37.4651 6.07841L37.4753 13.8037L39.0925 13.8014L39.0785 3.02929L36.6996 3.03229L36.6988 3.03266ZM64.5 2.99713L62.8673 2.99937L61.5675 7.91005L60.2549 3.00274L58.4669 3.00498L60.6377 10.204L60.6422 13.7741L62.3527 13.7719L62.3482 10.2017L64.5 2.99713ZM47.3499 3.01882L45.6224 13.7932L47.1927 13.7913L47.4856 11.8366L49.5849 11.834L49.8826 13.788L51.6086 13.7857L49.8532 3.01583L47.3499 3.01919V3.01882ZM47.7017 10.3742L48.5186 4.92564L49.3499 10.3723L47.7017 10.3745V10.3742ZM42.8407 3.02443L40.322 3.0278L40.336 13.7999L42.0465 13.7977L42.0412 9.75029L42.8498 9.74917C44.5603 9.74692 45.3987 8.80735 45.3965 7.08381L45.3946 5.68343C45.3923 3.95989 44.5516 3.02219 42.8411 3.02443H42.8407ZM42.8475 8.21039L42.0389 8.21152L42.034 4.56432L42.8426 4.5632C43.3867 4.56245 43.6826 4.80819 43.6837 5.57758L43.686 7.1934C43.6871 7.96279 43.392 8.20965 42.8475 8.21002V8.21039Z" fill="white"/>
</svg>
