<svg width="15" height="14" viewBox="0 0 15 14" fill="none" xmlns="http://www.w3.org/2000/svg">
<path fill-rule="evenodd" clip-rule="evenodd" d="M7.52158 12.8321C5.94889 12.8087 4.44793 12.1702 3.34025 11.0535C2.79876 10.5079 2.37182 9.85943 2.08451 9.14638C1.79721 8.43333 1.65534 7.67004 1.66725 6.90138C1.70346 5.36697 2.34613 3.90942 3.45458 2.84779C4.57674 1.77268 6.06961 1.17068 7.62367 1.16663H7.72633C9.15262 1.17343 10.5263 1.70596 11.5845 2.66229L10.0999 4.01329C9.43646 3.42261 8.57846 3.09736 7.69017 3.09979C6.64874 3.09597 5.64636 3.49596 4.89367 4.21571C4.52549 4.56747 4.23055 4.98859 4.02581 5.45482C3.82108 5.92106 3.7106 6.42318 3.70075 6.93229C3.69276 7.44126 3.78567 7.94677 3.97409 8.41964C4.16252 8.89251 4.44274 9.32338 4.79858 9.68738C5.52635 10.4315 6.5144 10.8644 7.55483 10.8949H7.63825C8.46075 10.9369 9.27158 10.6884 9.92317 10.1949C10.5716 9.70632 11.0216 8.99987 11.1902 8.20571L11.2152 8.13746H7.62833V6.14829H13.2738C13.3176 6.50821 13.3374 6.87046 13.3322 7.23271C13.2744 10.5816 10.9889 12.8327 7.647 12.8327L7.52158 12.8321Z" fill="white"/>
</svg>
