<svg width="108" height="24" viewBox="0 0 108 24" fill="none" xmlns="http://www.w3.org/2000/svg">
<path d="M19.6725 21.7121C21.6122 20.4487 20.1976 15.0761 16.5128 9.71213C12.828 4.34817 8.26843 1.02405 6.32867 2.28751C4.3889 3.55096 5.80351 8.92355 9.4883 14.2875C13.1731 19.6515 17.7327 22.9756 19.6725 21.7121Z" stroke="white" stroke-miterlimit="10"/>
<path d="M16.444 14.3825C20.2814 9.1209 21.8497 3.78892 19.9469 2.47316C18.0442 1.15739 13.3909 4.35608 9.5536 9.61764C5.71625 14.8792 4.14794 20.2112 6.05067 21.5269C7.95341 22.8427 12.6067 19.644 16.444 14.3825Z" stroke="white" stroke-miterlimit="10"/>
<path d="M13 16.114C19.6274 16.114 25 14.2718 25 11.9994C25 9.72694 19.6274 7.88477 13 7.88477C6.37258 7.88477 1 9.72694 1 11.9994C1 14.2718 6.37258 16.114 13 16.114Z" stroke="white" stroke-miterlimit="10"/>
<path d="M12.9997 13.8711C14.0609 13.8711 14.9212 13.0334 14.9212 12C14.9212 10.9666 14.0609 10.1289 12.9997 10.1289C11.9384 10.1289 11.0781 10.9666 11.0781 12C11.0781 13.0334 11.9384 13.8711 12.9997 13.8711Z" fill="#E50914"/>
<path d="M5.60178 6.51598C6.55762 6.51598 7.33247 5.76148 7.33247 4.83074C7.33247 3.90001 6.55762 3.14551 5.60178 3.14551C4.64595 3.14551 3.87109 3.90001 3.87109 4.83074C3.87109 5.76148 4.64595 6.51598 5.60178 6.51598Z" fill="#E50914"/>
<path d="M23.3361 15.6899C24.2294 15.6899 24.9535 14.9848 24.9535 14.115C24.9535 13.2452 24.2294 12.54 23.3361 12.54C22.4429 12.54 21.7188 13.2452 21.7188 14.115C21.7188 14.9848 22.4429 15.6899 23.3361 15.6899Z" fill="#E50914"/>
<path d="M5.26825 20.8137C6.28582 20.8137 7.11072 20.0105 7.11072 19.0197C7.11072 18.0288 6.28582 17.2256 5.26825 17.2256C4.25068 17.2256 3.42578 18.0288 3.42578 19.0197C3.42578 20.0105 4.25068 20.8137 5.26825 20.8137Z" fill="#E50914"/>
<path d="M49.4975 9.61567C49.8807 10.0026 50.1774 10.4668 50.368 10.9773C50.5586 11.4879 50.6388 12.0332 50.6031 12.5771V19.7724H47.6036V13.1692C47.6543 12.566 47.4741 11.966 47.0997 11.4908C46.9207 11.3089 46.7052 11.167 46.4674 11.0747C46.2297 10.9824 45.9751 10.9416 45.7205 10.9552C45.3934 10.9469 45.0686 11.0115 44.7695 11.1443C44.4704 11.2771 44.2045 11.4748 43.9909 11.7231C43.5056 12.3302 43.2631 13.0965 43.3105 13.8728V19.7738H40.3111V13.1712C40.3617 12.5679 40.1815 11.9679 39.8071 11.4928C39.6246 11.3094 39.4053 11.1669 39.1638 11.0746C38.9223 10.9823 38.6641 10.9422 38.406 10.9571C38.0858 10.9551 37.7688 11.0215 37.4762 11.152C37.1837 11.2825 36.9222 11.474 36.7095 11.7138C36.1925 12.3436 35.9376 13.1488 35.998 13.9619V19.7753H33V8.80397H35.6928L35.7803 10.7565C36.1089 10.0787 36.6309 9.51373 37.28 9.13313C37.9304 8.7637 38.6673 8.57445 39.4149 8.58485C40.1794 8.57112 40.933 8.76838 41.5931 9.15504C42.2261 9.53328 42.7153 10.112 42.9834 10.7999C43.3127 10.1062 43.8481 9.53167 44.5162 9.15504C45.1836 8.77583 45.9388 8.57919 46.706 8.58485C47.7353 8.54937 48.7374 8.91943 49.4975 9.61567Z" fill="white"/>
<path d="M56.7107 14.9241L54.7182 17.052V19.7719H51.7188V4H54.7182V13.8056L59.4691 8.80398H62.8627L58.7465 13.1035L63.1251 19.7743H59.7316L56.7107 14.9241Z" fill="white"/>
<path d="M72.1895 19.0918C71.7934 19.3928 71.3441 19.6162 70.8652 19.7501C70.3218 19.9132 69.7573 19.9953 69.19 19.9936C66.7524 19.9936 65.5335 18.8899 65.5335 16.6825V11.041H63.541V8.80118H65.5335V6.28039L68.533 5.44678V8.80313H72.0806V11.043H68.533V16.1956C68.533 17.2045 69.0366 17.7091 70.0439 17.7094C70.6619 17.7185 71.2618 17.5 71.7297 17.0954L72.1895 19.0918Z" fill="white"/>
<path d="M76.5142 16.8965C76.8445 17.2461 77.0287 17.7093 77.0287 18.1908C77.0287 18.6722 76.8445 19.1354 76.5142 19.485C76.1312 19.8212 75.6323 19.9944 75.1238 19.9675C74.6172 19.9948 74.1194 19.826 73.7334 19.4962C73.4027 19.1423 73.2188 18.6757 73.2188 18.191C73.2188 17.7063 73.4027 17.2397 73.7334 16.8858C74.1195 16.556 74.6172 16.3873 75.1238 16.4145C75.6323 16.3873 76.1312 16.5603 76.5142 16.8965Z" fill="#E50914"/>
<path d="M80.8603 16.2851C80.8257 16.6654 80.9058 17.0474 81.0902 17.3816C81.1969 17.4954 81.3288 17.5825 81.4752 17.6359C81.6217 17.6892 81.7786 17.7074 81.9334 17.6889C82.1498 17.6917 82.3659 17.6733 82.5787 17.6338C82.7982 17.5869 83.0142 17.5248 83.2251 17.4478L82.9626 19.5319C82.6781 19.6978 82.367 19.8131 82.0432 19.8727C81.6758 19.9519 81.3012 19.9924 80.9255 19.9935C79.8599 19.9935 79.0823 19.7338 78.5927 19.2144C78.1032 18.695 77.8594 17.8646 77.8613 16.7233V4H80.8608V16.2851H80.8603Z" fill="white"/>
<path d="M95.4411 17.8642L95.2219 19.6853C94.7779 19.8977 94.2904 20.003 93.7985 19.9925C92.3976 19.9925 91.5583 19.4443 91.2806 18.3477C90.9336 18.9108 90.4101 19.3428 89.7921 19.5762C89.0315 19.8701 88.2209 20.0117 87.406 19.993C86.5157 20.0463 85.6342 19.7908 84.9099 19.2694C84.6079 19.0167 84.3694 18.6965 84.2135 18.3345C84.0576 17.9725 83.9887 17.5789 84.0124 17.1854C84.0124 15.4 85.4355 14.2447 88.2817 13.7195L90.9089 13.2146V12.6882C90.9222 12.4349 90.8855 12.1815 90.8009 11.9425C90.7164 11.7035 90.5856 11.4835 90.4161 11.2951C90.2365 11.1183 90.0219 10.9811 89.7862 10.8923C89.5506 10.8035 89.2989 10.7651 89.0475 10.7795C88.4685 10.7537 87.8955 10.9067 87.406 11.2177C86.9466 11.5667 86.6344 12.0756 86.5312 12.6439L84.1445 11.635C84.3583 10.7109 84.924 9.90712 85.721 9.39515C86.6836 8.81508 87.7957 8.53271 88.9178 8.58345C90.4794 8.58345 91.6982 8.92348 92.5743 9.60355C93.0176 9.96466 93.3681 10.4269 93.5964 10.9517C93.8247 11.4764 93.9242 12.0484 93.8864 12.6196V17.1168C93.865 17.3461 93.9349 17.5747 94.0809 17.7527C94.1651 17.8241 94.2626 17.8781 94.3678 17.9115C94.473 17.9449 94.5837 17.9572 94.6937 17.9475C94.9455 17.9562 95.1973 17.9282 95.4411 17.8642ZM90.1099 17.4805C90.3492 17.3623 90.5507 17.1795 90.6919 16.9527C90.8332 16.726 90.9085 16.4643 90.9094 16.197V15.0561L88.5664 15.5825C88.1678 15.6563 87.7903 15.8173 87.4608 16.0538C87.3409 16.1534 87.2458 16.2796 87.183 16.4225C87.1203 16.5653 87.0916 16.7208 87.0992 16.8767C87.0892 17.0264 87.1136 17.1764 87.1705 17.3151C87.2274 17.4539 87.3152 17.5778 87.4273 17.6772C87.6918 17.8748 88.0175 17.9721 88.3468 17.9518C88.9662 17.9579 89.5756 17.7948 90.1094 17.48L90.1099 17.4805Z" fill="white"/>
<path d="M106.146 10.0982C106.978 11.1071 107.394 12.5111 107.394 14.3101C107.394 16.0955 106.978 17.4884 106.146 18.4889C105.727 18.9872 105.199 19.382 104.603 19.6426C104.007 19.9032 103.358 20.0226 102.709 19.9915C101.912 20.0104 101.129 19.7844 100.465 19.3439C99.8298 18.9124 99.332 18.307 99.0309 17.5997L98.921 19.7714H96.2715V4H99.2709V10.6027C99.5884 9.99311 100.065 9.48133 100.65 9.12194C101.273 8.75408 101.986 8.56852 102.708 8.58632C103.359 8.55517 104.008 8.67547 104.604 8.93778C105.201 9.20009 105.729 9.59729 106.146 10.0982ZM103.716 16.8109C104.215 16.0684 104.454 15.1813 104.397 14.2882C104.454 13.395 104.215 12.5079 103.716 11.7654C103.492 11.5 103.215 11.2847 102.902 11.1337C102.589 10.9828 102.248 10.8994 101.901 10.8891C101.554 10.8787 101.209 10.9417 100.888 11.0738C100.567 11.2059 100.277 11.4042 100.038 11.6559C99.5483 12.2657 99.2783 13.0231 99.2714 13.8056V14.7712C99.2745 15.5577 99.5448 16.3197 100.038 16.9317C100.279 17.1811 100.57 17.3772 100.891 17.5074C101.212 17.6375 101.557 17.6989 101.904 17.6875C102.25 17.6761 102.59 17.5923 102.902 17.4413C103.215 17.2904 103.492 17.0756 103.716 16.8109Z" fill="white"/>
</svg>
