<svg width="140" height="126" viewBox="0 0 140 126" fill="none" xmlns="http://www.w3.org/2000/svg">
<path d="M92.2415 72.3743C98.7074 68.1628 93.992 50.2542 81.7094 32.3743C69.4268 14.4945 54.2281 3.41408 47.7622 7.62559C41.2963 11.8371 46.0117 29.7457 58.2943 47.6256C70.5769 65.5055 85.7756 76.5859 92.2415 72.3743Z" stroke="#1B1F24" stroke-width="3" stroke-miterlimit="10"/>
<path d="M81.48 47.9421C94.2712 30.4036 99.4989 12.6303 93.1564 8.24442C86.814 3.85854 71.3031 14.5209 58.512 32.0594C45.7208 49.5979 40.4931 67.3711 46.8356 71.757C53.178 76.1429 68.6889 65.4806 81.48 47.9421Z" stroke="#1B1F24" stroke-width="3" stroke-miterlimit="10"/>
<path d="M70 53.7123C92.0914 53.7123 110 47.5717 110 39.9969C110 32.4221 92.0914 26.2815 70 26.2815C47.9086 26.2815 30 32.4221 30 39.9969C30 47.5717 47.9086 53.7123 70 53.7123Z" stroke="#1B1F24" stroke-width="3" stroke-miterlimit="10"/>
<path d="M69.9989 46.2359C73.5364 46.2359 76.4041 43.4435 76.4041 39.9989C76.4041 36.5543 73.5364 33.762 69.9989 33.762C66.4614 33.762 63.5938 36.5543 63.5938 39.9989C63.5938 43.4435 66.4614 46.2359 69.9989 46.2359Z" fill="#DF1E2A"/>
<path d="M45.3393 21.7205C48.5254 21.7205 51.1082 19.2055 51.1082 16.1031C51.1082 13.0006 48.5254 10.4856 45.3393 10.4856C42.1532 10.4856 39.5703 13.0006 39.5703 16.1031C39.5703 19.2055 42.1532 21.7205 45.3393 21.7205Z" fill="#DF1E2A"/>
<path d="M104.454 52.2985C107.431 52.2985 109.845 49.9481 109.845 47.0488C109.845 44.1494 107.431 41.7991 104.454 41.7991C101.476 41.7991 99.0625 44.1494 99.0625 47.0488C99.0625 49.9481 101.476 52.2985 104.454 52.2985Z" fill="#DF1E2A"/>
<path d="M44.2275 69.3797C47.6194 69.3797 50.3691 66.7023 50.3691 63.3995C50.3691 60.0966 47.6194 57.4192 44.2275 57.4192C40.8356 57.4192 38.0859 60.0966 38.0859 63.3995C38.0859 66.7023 40.8356 69.3797 44.2275 69.3797Z" fill="#DF1E2A"/>
<path d="M31.1876 106.529C31.9061 107.254 32.4624 108.125 32.8198 109.082C33.1772 110.039 33.3274 111.062 33.2606 112.081V125.573H27.6366V113.192C27.7315 112.06 27.3937 110.936 26.6917 110.045C26.356 109.703 25.952 109.438 25.5062 109.264C25.0604 109.091 24.5831 109.015 24.1057 109.04C23.4924 109.025 22.8834 109.146 22.3226 109.395C21.7618 109.644 21.2631 110.015 20.8627 110.48C19.9528 111.618 19.4981 113.055 19.587 114.511V125.575H13.963V113.195C14.0579 112.064 13.7201 110.939 13.0181 110.048C12.6758 109.704 12.2647 109.437 11.8119 109.264C11.3591 109.091 10.8749 109.016 10.391 109.044C9.79059 109.04 9.19625 109.165 8.64768 109.409C8.09911 109.654 7.60897 110.013 7.21001 110.463C6.24062 111.644 5.76284 113.153 5.87601 114.678V125.578H0.254761V105.007H5.30378L5.46779 108.668C6.08402 107.397 7.06261 106.338 8.27978 105.624C9.49933 104.931 10.881 104.576 12.2827 104.596C13.7162 104.57 15.1291 104.94 16.3668 105.665C17.5536 106.374 18.4709 107.459 18.9737 108.749C19.5911 107.449 20.595 106.371 21.8477 105.665C23.0991 104.954 24.515 104.585 25.9536 104.596C27.8834 104.529 29.7624 105.223 31.1876 106.529Z" fill="#1B1F24"/>
<path d="M44.7135 116.483L40.9775 120.472V125.572H35.3535V96H40.9775V114.386L49.8855 105.007H56.2485L48.5305 113.069L56.7405 125.577H50.3776L44.7135 116.483Z" fill="#1B1F24"/>
<path d="M73.7364 124.297C72.9937 124.861 72.1512 125.28 71.2534 125.531C70.2344 125.837 69.1761 125.991 68.1124 125.988C63.5418 125.988 61.2565 123.918 61.2565 119.78V109.202H57.5205V105.002H61.2565V100.276L66.8804 98.7126V105.006H73.5323V109.206H66.8804V118.867C66.8804 120.758 67.8247 121.705 69.7134 121.705C70.8722 121.722 71.9969 121.312 72.8744 120.554L73.7364 124.297Z" fill="#1B1F24"/>
<path d="M81.8424 120.183C82.4618 120.838 82.8071 121.707 82.8071 122.609C82.8071 123.512 82.4618 124.38 81.8424 125.036C81.1243 125.666 80.1889 125.991 79.2354 125.941C78.2855 125.992 77.3522 125.675 76.6284 125.057C76.0084 124.394 75.6635 123.519 75.6635 122.61C75.6635 121.701 76.0084 120.826 76.6284 120.163C77.3523 119.544 78.2855 119.228 79.2354 119.279C80.1888 119.228 81.1243 119.552 81.8424 120.183Z" fill="#E21921"/>
<path d="M89.9925 119.034C89.9275 119.748 90.0777 120.464 90.4235 121.091C90.6236 121.304 90.8708 121.467 91.1454 121.567C91.42 121.667 91.7143 121.701 92.0045 121.667C92.4102 121.672 92.8155 121.637 93.2145 121.563C93.6261 121.476 94.031 121.359 94.4264 121.215L93.9343 125.122C93.4008 125.433 92.8175 125.65 92.2103 125.761C91.5215 125.91 90.8192 125.986 90.1146 125.988C88.1166 125.988 86.6587 125.501 85.7408 124.527C84.8229 123.553 84.3658 121.996 84.3694 119.856V96H89.9934V119.034H89.9925Z" fill="#1B1F24"/>
<path d="M117.331 121.994L116.921 125.409C116.088 125.807 115.174 126.005 114.252 125.985C111.625 125.985 110.051 124.957 109.531 122.901C108.88 123.957 107.898 124.767 106.74 125.204C105.313 125.755 103.794 126.021 102.266 125.986C100.596 126.086 98.9436 125.607 97.5855 124.629C97.0193 124.155 96.5721 123.555 96.2797 122.876C95.9874 122.197 95.8582 121.459 95.9026 120.722C95.9026 117.374 98.5709 115.208 103.908 114.223L108.834 113.276V112.289C108.858 111.814 108.79 111.339 108.631 110.891C108.473 110.443 108.227 110.03 107.91 109.677C107.573 109.346 107.171 109.089 106.729 108.922C106.287 108.756 105.815 108.683 105.344 108.71C104.258 108.662 103.183 108.949 102.266 109.532C101.404 110.187 100.819 111.141 100.625 112.206L96.1504 110.315C96.5512 108.582 97.612 107.075 99.1064 106.115C100.911 105.027 102.996 104.498 105.1 104.593C108.028 104.593 110.314 105.23 111.956 106.506C112.787 107.183 113.445 108.049 113.873 109.033C114.301 110.017 114.487 111.09 114.416 112.161V120.593C114.376 121.023 114.507 121.452 114.781 121.785C114.939 121.919 115.122 122.02 115.319 122.083C115.516 122.146 115.724 122.169 115.93 122.15C116.402 122.167 116.874 122.114 117.331 121.994ZM107.335 121.275C107.784 121.053 108.162 120.71 108.427 120.285C108.692 119.86 108.833 119.369 108.834 118.868V116.729L104.441 117.716C103.694 117.855 102.986 118.156 102.368 118.6C102.144 118.787 101.965 119.023 101.848 119.291C101.73 119.559 101.676 119.851 101.69 120.143C101.672 120.423 101.717 120.705 101.824 120.965C101.931 121.225 102.095 121.457 102.306 121.644C102.801 122.014 103.412 122.197 104.03 122.159C105.191 122.17 106.334 121.864 107.335 121.274L107.335 121.275Z" fill="#1B1F24"/>
<path d="M137.405 107.434C138.965 109.326 139.745 111.958 139.745 115.331C139.745 118.679 138.965 121.291 137.405 123.167C136.619 124.101 135.629 124.841 134.511 125.33C133.394 125.819 132.178 126.042 130.96 125.984C129.467 126.019 127.999 125.596 126.753 124.77C125.562 123.961 124.629 122.826 124.064 121.5L123.858 125.571H118.89V96H124.514V108.38C125.11 107.237 126.003 106.277 127.1 105.604C128.268 104.914 129.605 104.566 130.959 104.599C132.179 104.541 133.396 104.767 134.515 105.258C135.633 105.75 136.622 106.495 137.405 107.434ZM132.849 120.02C133.784 118.628 134.233 116.965 134.125 115.29C134.233 113.616 133.784 111.952 132.849 110.56C132.429 110.062 131.909 109.659 131.322 109.376C130.736 109.093 130.097 108.936 129.446 108.917C128.796 108.898 128.149 109.016 127.547 109.263C126.945 109.511 126.401 109.883 125.952 110.355C125.034 111.498 124.528 112.918 124.515 114.386V116.196C124.521 117.671 125.028 119.099 125.952 120.247C126.404 120.715 126.949 121.082 127.552 121.326C128.154 121.57 128.801 121.685 129.451 121.664C130.1 121.643 130.738 121.486 131.324 121.202C131.909 120.919 132.428 120.517 132.849 120.02Z" fill="#1B1F24"/>
</svg>
