<svg width="52" height="21" viewBox="0 0 52 21" fill="none" xmlns="http://www.w3.org/2000/svg">
<g id="Affirm">
<path id="Affirm_2" fill-rule="evenodd" clip-rule="evenodd" d="M21.2689 11.9383H19.051V11.068C19.051 9.93596 19.6977 9.61204 20.2556 9.61204C20.8712 9.61204 21.3507 9.88524 21.3507 9.88524L22.1058 8.15959C22.1058 8.15959 21.3403 7.6593 19.949 7.6593C18.3847 7.6593 16.6049 8.54115 16.6049 11.3089V11.9383H12.8919V11.068C12.8919 9.93596 13.5386 9.61204 14.0954 9.61204C14.4124 9.61204 14.8389 9.68582 15.1916 9.88524L15.9467 8.15959C15.4959 7.89446 14.772 7.6593 13.7899 7.6593C12.2256 7.6593 10.4458 8.54115 10.4458 11.3089V11.9383H9.02562V13.8265H10.4458V20.4974H12.8919V13.8265H16.6049V20.4974H19.051V13.8265H21.2689V11.9383ZM3.40981 18.9617C2.76658 18.9617 2.44612 18.6458 2.44612 18.1236C2.44612 17.1576 3.52739 16.8268 5.50088 16.6182C5.50088 17.9104 4.6271 18.9617 3.40981 18.9617ZM4.26053 11.6867C2.85073 11.6867 1.22767 12.3519 0.346975 13.0539L1.15159 14.7473C1.85822 14.1006 3.00058 13.5484 4.03113 13.5484C5.00981 13.5484 5.55044 13.8758 5.55044 14.534C5.55044 14.979 5.19194 15.2026 4.51413 15.2902C1.98502 15.6199 0 16.3173 0 18.2677C0 19.8136 1.10087 20.7496 2.82076 20.7496C4.04727 20.7496 5.14007 20.0672 5.65995 19.1669V20.4971H7.94699V14.9236C7.94699 12.6216 6.34699 11.6867 4.26053 11.6867ZM27.2278 11.9383V20.4974H29.6763V16.374C29.6763 14.4132 30.8624 13.838 31.6901 13.838C32.0129 13.838 32.4486 13.9313 32.7368 14.1469L33.1829 11.8841C32.8048 11.7227 32.4094 11.687 32.0855 11.687C30.8267 11.687 30.0359 12.2449 29.5137 13.3769V11.9383H27.2278ZM41.7664 13.1904C42.2702 12.4526 43.2373 11.6872 44.5319 11.6872C46.0961 11.6872 47.3907 12.6578 47.3907 14.5817V20.4976H44.9445V15.3552C44.9445 14.2221 44.2621 13.7517 43.6154 13.7517C42.8062 13.7517 41.997 14.4918 41.997 16.0918V20.4976H39.5509V15.3725C39.5509 14.2048 38.9076 13.7517 38.2079 13.7517C37.4344 13.7517 36.6068 14.5091 36.6068 16.0918V20.4976H34.1572V11.9385H36.5169V13.233C36.9307 12.4065 37.8264 11.6872 39.1209 11.6872C40.3071 11.6872 41.2984 12.237 41.7664 13.1904ZM25.1732 20.4977H22.7294V11.9386H25.1732V20.4977Z" fill="#060809"/>
<path id="Affirm-Arc" fill-rule="evenodd" clip-rule="evenodd" d="M36.9867 0C30.3792 0 24.4898 4.58675 22.8184 10.4842H25.2138C26.6097 6.09223 31.3486 2.23747 36.9867 2.23747C43.8397 2.23747 49.7625 7.45477 49.7625 15.577C49.7625 17.4006 49.5262 19.0444 49.0789 20.4969H51.4029L51.4259 20.4173C51.8063 18.9188 52 17.2911 52 15.577C52 6.51875 45.3994 0 36.9867 0Z" fill="#0FA0EA"/>
</g>
</svg>
