<svg width="56" height="15" viewBox="0 0 56 15" fill="none" xmlns="http://www.w3.org/2000/svg">
<g id="Alipay">
<path id="Vector" d="M55.9868 4.14589L56 4.13135H53.9077L52.5864 8.71149H52.5163L50.9993 4.13135H48.5128L51.5045 11.69L50.2547 13.9939V14.0495H52.2068L55.9868 4.14589Z" fill="black"/>
<path id="Vector_2" d="M32.7911 4.13135H30.5718V11.6622H32.7911V4.13135Z" fill="black"/>
<path id="Vector_3" d="M48.0763 9.77891V6.63245C48.0763 4.91837 47.0645 3.97668 45.2803 3.97668C44.1416 3.97668 43.3559 4.17375 41.9223 4.60888L42.3151 6.33752C43.6218 5.74764 44.1971 5.49503 44.8015 5.49503C45.5316 5.49503 45.8557 6.0148 45.8557 6.8163V6.87185C43.3123 7.3493 42.5254 7.61646 42.0347 8.10847C41.6696 8.47351 41.5149 8.99329 41.5149 9.59771C41.5149 11.0446 42.6391 11.817 43.6919 11.817C44.4788 11.817 45.111 11.5221 45.9681 10.8753L46.1228 11.6623H48.3421L48.0763 9.77891ZM45.857 9.83578C45.2671 10.1585 44.9298 10.2855 44.537 10.2855C44.0027 10.2855 43.6654 9.93365 43.6654 9.37287C43.6654 9.16258 43.7078 8.95096 43.8757 8.78299C44.1429 8.51583 44.6627 8.31876 45.857 8.03837V9.83578Z" fill="black"/>
<path id="Vector_4" d="M38.3129 3.97668C37.4982 3.97668 36.866 4.28617 36.1491 4.87605V4.13143H33.9298V14.0496H36.1491V11.5909C36.571 11.7033 36.9638 11.7602 37.4413 11.7602C39.4225 11.7602 41.2067 10.2987 41.2067 7.69979C41.2067 5.36805 39.9146 3.97668 38.3129 3.97668ZM36.907 10.3688C36.6544 10.3688 36.415 10.341 36.1478 10.2564V6.18277C36.612 5.86006 36.9903 5.70532 37.4678 5.70532C38.297 5.70532 38.957 6.36529 38.957 7.77121C38.9583 9.56862 37.9889 10.3688 36.907 10.3688Z" fill="black"/>
<path id="Vector_5" d="M11.7592 0.252197H2.24312C1.00385 0.252197 0 1.26531 0 2.51384V12.1106C0 13.3591 1.00385 14.3722 2.24312 14.3722H11.7592C12.9985 14.3722 14.001 13.3591 14.001 12.1106V2.51384C14.0023 1.26398 12.9985 0.252197 11.7592 0.252197Z" fill="#1677FF"/>
<path id="Vector_6" d="M11.5277 9.11886C10.9683 8.92973 10.2157 8.64009 9.37849 8.33457C9.88108 7.4524 10.2831 6.44854 10.5477 5.3574H7.78741V4.35488H11.168V3.79542H7.78741V2.12366H6.40794C6.16591 2.12366 6.16591 2.36437 6.16591 2.36437V3.7941H2.747V4.35355H6.16591V5.35608H3.34216V5.91554H8.81771C8.618 6.61122 8.34819 7.26591 8.02944 7.85976C6.2532 7.26856 4.35659 6.78977 3.16626 7.08471C2.40444 7.27384 1.91376 7.61111 1.62544 7.96556C0.302841 9.58839 1.25114 12.0537 4.04446 12.0537C5.69638 12.0537 7.28747 11.1252 8.52013 9.595C10.3599 10.4864 14.001 12.018 14.001 12.018V9.83571C14.0023 9.83571 13.5447 9.79868 11.5277 9.11886ZM3.78391 11.1107C1.6056 11.1107 0.961493 9.38074 2.03809 8.43376C2.39783 8.11369 3.05384 7.95762 3.403 7.92324C4.6965 7.79495 5.89477 8.29224 7.30863 8.98793C6.31536 10.2947 5.04963 11.1107 3.78391 11.1107Z" fill="white"/>
<path id="Vector_7" d="M22.9431 1.75732H19.9646L16.6356 11.6622H18.687L19.2491 9.72332H22.7751L23.3094 11.6622H25.9361L22.9431 1.75732ZM19.712 8.1071L21.0319 3.5415H21.0875L22.3373 8.1071H19.712Z" fill="black"/>
<path id="Vector_8" d="M29.0534 1.40552H26.8341V11.6609H29.0534V1.40552Z" fill="black"/>
<path id="Vector_9" d="M30.4025 2.31937C30.4025 3.04944 30.9368 3.54145 31.6814 3.54145C32.426 3.54145 32.9604 3.04944 32.9604 2.31937C32.9604 1.60252 32.426 1.09729 31.6814 1.09729C30.9368 1.09729 30.4025 1.60252 30.4025 2.31937Z" fill="#1677FF"/>
</g>
</svg>
