<svg width="63" height="28" viewBox="0 0 63 28" fill="none" xmlns="http://www.w3.org/2000/svg">
<g id="Discover">
<path id="Stripe" d="M23.4685 28L62.9685 16.5V23C62.9685 25.7614 60.73 28 57.9685 28H23.4685Z" fill="#FD6020"/>
<path id="DISC-VER" fill-rule="evenodd" clip-rule="evenodd" d="M55.4712 0.22171C57.6443 0.22171 58.8395 1.1888 58.8395 3.01551C58.9482 4.41241 57.9703 5.59441 56.6664 5.80931L59.6001 9.78511H57.3183L54.8192 5.91677H54.6019V9.78511H52.7548V0.22171H55.4712ZM54.6019 4.6273H55.1452C56.3404 4.6273 56.8837 4.09003 56.8837 3.12294C56.8837 2.26331 56.3404 1.72604 55.1452 1.72604H54.6019V4.6273ZM46.3441 9.78509H51.5596V8.17328H48.1913V5.59439H51.4509V3.98258H48.1913V1.8335H51.5596V0.221695H46.3441V9.78509ZM40.9113 6.66893L38.4123 0.221695H36.4565L40.4767 10H41.4546L45.4749 0.221695H43.5191L40.9113 6.66893ZM18.8542 5.05712C18.8542 7.74347 21.0274 10 23.7437 10C24.613 10 25.3736 9.78509 26.1342 9.46273V7.31365C25.5909 7.95838 24.8303 8.38819 23.9611 8.38819C22.2226 8.38819 20.81 7.09874 20.81 5.37948V5.16457C20.7014 3.44531 22.1139 1.94096 23.8524 1.8335C24.7216 1.8335 25.5909 2.26332 26.1342 2.90804V0.758965C25.4822 0.329149 24.613 0.221695 23.8524 0.221695C21.0274 0.00678752 18.8542 2.26332 18.8542 5.05712ZM15.4859 3.87513C14.3994 3.44531 14.0734 3.2304 14.0734 2.69314C14.182 2.04841 14.7253 1.51114 15.3773 1.6186C15.9205 1.6186 16.4638 1.94096 16.8984 2.37077L17.8763 1.08133C17.1158 0.436603 16.1379 0.00678752 15.16 0.00678752C13.6388 -0.100666 12.3349 1.08133 12.2262 2.58568V2.69314C12.2262 3.98258 12.7695 4.73476 14.508 5.27203C14.9426 5.37948 15.3773 5.59439 15.8119 5.8093C16.1379 6.02421 16.3552 6.34657 16.3552 6.77638C16.3552 7.52856 15.7032 8.17328 15.0513 8.17328H14.9426C14.0734 8.17328 13.3128 7.63601 12.9868 6.88384L11.7916 8.06583C12.4436 9.24782 13.7474 9.89255 15.0513 9.89255C16.7898 10 18.2023 8.71055 18.311 6.99129V6.66893C18.2023 5.37948 17.659 4.73476 15.4859 3.87513ZM9.18389 9.78509H11.031V0.221695H9.18389V9.78509ZM0.600098 0.22171H3.31649H3.85977C6.4675 0.329164 8.53196 2.47824 8.4233 5.05714C8.4233 6.45404 7.77137 7.74348 6.68481 8.71057C5.70691 9.46275 4.5117 9.89256 3.31649 9.78511H0.600098V0.22171ZM2.99051 8.1733C3.85976 8.28075 4.83766 7.95839 5.48959 7.42112C6.14153 6.77639 6.46749 5.91676 6.46749 4.94968C6.46749 4.09005 6.14153 3.23042 5.48959 2.58569C4.83766 2.04842 3.85976 1.72606 2.99051 1.83352H2.44724V8.1733H2.99051Z" fill="black"/>
<path id="O" fill-rule="evenodd" clip-rule="evenodd" d="M31.6756 0C28.9593 0 26.6775 2.14908 26.6775 4.94288C26.6775 7.62923 28.8506 9.88576 31.6756 9.99321C34.5007 10.1007 36.6738 7.84413 36.7825 5.05033C36.6738 2.25653 34.5007 0 31.6756 0V0Z" fill="#FD6020"/>
</g>
</svg>
