<svg width="55" height="20" viewBox="0 0 55 20" fill="none" xmlns="http://www.w3.org/2000/svg">
<g id="Elo">
<path id="Elo_2" d="M15.8353 11.1111C15.274 13.8164 12.8374 15.8507 9.91692 15.8507C9.24687 15.8507 8.60191 15.7433 8.00014 15.5454L6.65869 19.4814C7.68243 19.8179 8.77777 20 9.91692 20C14.8811 20 19.0219 16.5407 19.9762 11.9437L15.8353 11.1111Z" fill="#EC412A"/>
<path id="Elo_3" fill-rule="evenodd" clip-rule="evenodd" d="M39.9051 2.22229V13.6028L41.9474 14.4214L40.9813 16.6661L38.9616 15.8543C38.5075 15.6638 38.2002 15.3737 37.9667 15.046C37.7425 14.7108 37.5763 14.2525 37.5763 13.6341V2.22229H39.9051ZM24.416 10.6806C24.4668 7.42614 27.2383 4.82826 30.6014 4.87811C33.4559 4.9214 35.8209 6.85473 36.4421 9.42614L25.4022 13.9889C24.7609 13.0409 24.3964 11.9004 24.416 10.6806ZM26.9421 11.1369C26.927 11.0004 26.9162 10.8604 26.9203 10.7191C26.952 8.80165 28.5837 7.27164 30.5651 7.30341C31.6436 7.31734 32.6013 7.79492 33.2487 8.53408L26.9421 11.1369ZM33.0163 13.2498C32.3509 13.8757 31.4486 14.257 30.4523 14.2433C29.7695 14.2322 29.1368 14.0346 28.5988 13.7052L27.2651 15.7601C28.1785 16.3184 29.2555 16.6487 30.4165 16.6661C32.1066 16.6904 33.647 16.0484 34.767 14.9883L33.0163 13.2498ZM48.405 7.30335C48.0072 7.30335 47.6248 7.36553 47.2676 7.48147L46.473 5.17878C47.0795 4.98294 47.729 4.87656 48.405 4.87656C51.3547 4.87656 53.8153 6.90269 54.3796 9.59418L51.9196 10.0791C51.5881 8.49511 50.1405 7.30335 48.405 7.30335ZM44.366 15.1871L46.0282 13.3695C45.2858 12.7339 44.8184 11.8057 44.8184 10.7711C44.8184 9.73755 45.2858 8.8098 46.0275 8.17472L44.3641 6.3571C43.1031 7.43706 42.3085 9.01509 42.3085 10.7711C42.3085 12.5293 43.1037 14.1068 44.366 15.1871ZM48.4048 14.2401C50.1388 14.2401 51.5862 13.0494 51.9196 11.4677L54.3789 11.9547C53.8119 14.6433 51.3519 16.6667 48.4048 16.6667C47.7284 16.6667 47.078 16.56 46.4698 16.3632L47.2664 14.0613C47.6242 14.1769 48.0068 14.2401 48.4048 14.2401Z" fill="black"/>
<path id="Elo_4" d="M3.06883 17.7778L5.54895 14.5755C4.44189 13.4557 3.74316 11.821 3.74316 9.99877C3.74316 8.17792 4.44124 6.54315 5.54797 5.42425L3.06655 2.22229C1.18543 4.12472 0 6.90365 0 9.99877C0 13.0955 1.18716 15.8754 3.06883 17.7778Z" fill="#1BA7DE"/>
<path id="Elo_5" d="M7.99824 4.45063C8.59995 4.25334 9.24365 4.14623 9.91343 4.14623C12.8365 4.14623 15.2747 6.18309 15.834 8.88889L19.9762 8.06036C19.0257 3.46168 14.8821 0 9.91343 0C8.77584 0 7.68085 0.181795 6.65869 0.516688L7.99824 4.45063Z" fill="#FECA2F"/>
</g>
</svg>
