<svg width="55" height="20" viewBox="0 0 55 20" fill="none" xmlns="http://www.w3.org/2000/svg">
<g id="FacebookPay">
<path id="Vector" fill-rule="evenodd" clip-rule="evenodd" d="M9.94621 0H10.0031V1.44607H9.94621C6.27797 1.44607 3.17396 3.86171 2.14145 7.19065L0.760986 6.7522C1.98048 2.8392 5.63083 0 9.94621 0Z" fill="url(#paint0_linear_909_68738)"/>
<path id="Vector_2" fill-rule="evenodd" clip-rule="evenodd" d="M10.003 1.44607V0H9.94604C14.2744 0 17.9362 2.85905 19.1427 6.79191L17.7638 7.23202C16.7492 3.89976 13.6614 1.47089 10.003 1.44607Z" fill="url(#paint1_linear_909_68738)"/>
<path id="Vector_3" fill-rule="evenodd" clip-rule="evenodd" d="M14.7476 16.2244L15.598 17.3958C13.9487 18.5931 11.972 19.2342 9.94605 19.2291C7.95141 19.2344 6.00376 18.6132 4.3689 17.4504L5.22092 16.279C6.55423 17.2271 8.1851 17.7847 9.94605 17.7847C11.7411 17.7847 13.3997 17.2056 14.7476 16.2244Z" fill="url(#paint2_linear_909_68738)"/>
<path id="Vector_4" fill-rule="evenodd" clip-rule="evenodd" d="M0.762514 6.7522L2.14135 7.19065C1.89823 7.97481 1.77484 8.7923 1.77551 9.61456C1.77551 12.3661 3.13483 14.7999 5.22098 16.2791L4.37059 17.4505C2.00802 15.7678 0.440567 13.0444 0.333252 9.95209V9.27869C0.364146 8.40178 0.512111 7.55465 0.762514 6.7522Z" fill="url(#paint3_linear_909_68738)"/>
<path id="Vector_5" fill-rule="evenodd" clip-rule="evenodd" d="M19.5639 9.6146C19.5639 12.8145 18.003 15.6471 15.5965 17.3959L14.7461 16.2262C15.786 15.4781 16.6346 14.4875 17.221 13.3372C17.8075 12.1869 18.1146 10.9104 18.1168 9.6146C18.1168 8.78402 17.9932 7.98157 17.7623 7.2271L19.1411 6.78699C19.4176 7.68044 19.5639 8.63015 19.5639 9.61626V9.6146Z" fill="url(#paint4_linear_909_68738)"/>
<path id="Vector_6" fill-rule="evenodd" clip-rule="evenodd" d="M14.4501 11.0426C14.4501 10.5418 14.1005 10.3174 13.3249 10.3174H11.4144V11.7646H13.3249C14.1136 11.7646 14.4501 11.5483 14.4501 11.0426ZM13.0567 8.00852H11.4144V9.45566H13.0567C13.7997 9.45566 14.1363 9.23127 14.1363 8.73534C14.1363 8.23779 13.7949 8.00852 13.0567 8.00852ZM15.4534 11.1337C15.4534 12.0995 14.6827 12.6491 13.3233 12.6491H10.5152C10.4665 12.6491 10.4339 12.6166 10.4339 12.5694V7.20366C10.4339 7.1565 10.4665 7.12561 10.5152 7.12561H13.0762C14.3981 7.12561 15.1249 7.63455 15.1249 8.55323C15.1249 9.09794 14.881 9.53533 14.177 9.74508C15.068 9.93045 15.429 10.4556 15.4534 11.1337ZM9.26648 7.20366V7.95324C9.26648 8.00202 9.23396 8.03291 9.18518 8.03291H5.93319V9.43289H8.63234C8.68112 9.43289 8.71201 9.46541 8.71201 9.51257V10.2605C8.71201 10.3093 8.67949 10.3418 8.63071 10.3418H5.93482V12.5694C5.93482 12.6182 5.9023 12.6491 5.85352 12.6491H5.03565C4.98687 12.6491 4.95435 12.6166 4.95435 12.5694V7.20366C4.95435 7.1565 4.98687 7.12561 5.03565 7.12561H9.1868C9.23558 7.12561 9.2681 7.15813 9.2681 7.20366H9.26648Z" fill="#64717D"/>
<path id="Vector_7" fill-rule="evenodd" clip-rule="evenodd" d="M47.0548 6.3797C47.8524 8.83659 48.7683 11.2535 49.7994 13.6219L52.3197 6.3797H54.3343L50.723 15.7357C50.2612 16.934 49.7133 17.8576 49.0791 18.508C48.445 19.1584 47.5946 19.4836 46.5296 19.4836C46.2645 19.4836 46.0141 19.4624 45.7816 19.4202V17.786C45.9767 17.8169 46.1507 17.8316 46.297 17.8316C46.9442 17.8316 47.471 17.6527 47.8775 17.2917C48.284 16.9324 48.6417 16.4039 48.949 15.708C48.1862 14.202 47.4747 12.6705 46.8157 11.1162C46.1509 9.54988 45.5167 7.97074 44.9133 6.3797H47.0548ZM39.5752 6.16182C40.7069 6.16182 41.6174 6.48214 42.3069 7.12278C42.9979 7.76505 43.3426 8.72438 43.3426 10.0008V15.4527H41.5703V13.9731C41.2126 14.5064 40.7524 14.9162 40.1931 15.204C39.5995 15.4988 38.9436 15.6466 38.2809 15.6348C37.3069 15.6348 36.5509 15.3877 36.0127 14.895C35.4745 14.4023 35.2045 13.7519 35.2045 12.9487C35.2045 12.1503 35.5086 11.4804 36.1151 10.9422C36.7216 10.4057 37.6891 10.1341 39.0191 10.1341H41.5313V10.1081C41.5313 8.58292 40.8175 7.82033 39.3898 7.82033C38.7915 7.82033 38.289 7.92602 37.8777 8.13902C37.4695 8.3504 37.1378 8.64633 36.8858 9.02844L35.6208 8.02033C36.0143 7.42196 36.533 6.96181 37.1769 6.64149C37.8608 6.31154 38.6127 6.14669 39.372 6.16019H39.5736L39.5752 6.16182ZM29.0811 2.75049C30.7005 2.75049 31.9103 3.12934 32.7103 3.88868C33.5103 4.64802 33.9119 5.67727 33.9119 6.97807C33.9119 8.27398 33.5103 9.30323 32.7103 10.0642C31.9103 10.8268 30.7005 11.2073 29.0811 11.2073H25.6079V15.4544H23.6665V2.75049H29.0794H29.0811ZM41.5313 11.5617H39.0923C38.3671 11.5617 37.8484 11.6756 37.5362 11.9032C37.3882 12.0057 37.2681 12.1436 37.1869 12.3043C37.1057 12.4651 37.0659 12.6435 37.0712 12.8235C37.0712 13.6202 37.6078 14.0202 38.6874 14.0202C39.4012 14.0202 39.9947 13.8625 40.4695 13.5438C40.9443 13.2267 41.2988 12.7959 41.5313 12.2512V11.5617ZM28.8973 4.5277H25.6079V9.42843H28.8957C29.9493 9.42843 30.7168 9.22519 31.2013 8.81544C31.6843 8.40894 31.9249 7.79594 31.9249 6.97807C31.9249 6.16182 31.6843 5.54882 31.2013 5.1407C30.7168 4.73257 29.9493 4.5277 28.8957 4.5277H28.8973Z" fill="#1B2529"/>
</g>
<defs>
<linearGradient id="paint0_linear_909_68738" x1="10.0031" y1="1.87129" x2="2.60177" y2="7.23795" gradientUnits="userSpaceOnUse">
<stop stop-color="#24D365"/>
<stop offset="1" stop-color="#139DBD"/>
</linearGradient>
<linearGradient id="paint1_linear_909_68738" x1="9.94605" y1="1.82331" x2="17.3691" y2="7.22094" gradientUnits="userSpaceOnUse">
<stop stop-color="#23D068"/>
<stop offset="0.52" stop-color="#EACD36"/>
<stop offset="1" stop-color="#FF6C5C"/>
</linearGradient>
<linearGradient id="paint2_linear_909_68738" x1="4.79328" y1="16.8829" x2="15.159" y2="16.8829" gradientUnits="userSpaceOnUse">
<stop stop-color="#266FF3"/>
<stop offset="1" stop-color="#C439D6"/>
</linearGradient>
<linearGradient id="paint3_linear_909_68738" x1="3.19012" y1="16.9128" x2="0.0799532" y2="7.8389" gradientUnits="userSpaceOnUse">
<stop stop-color="#266FF3"/>
<stop offset="1" stop-color="#149FBA"/>
</linearGradient>
<linearGradient id="paint4_linear_909_68738" x1="17.4404" y1="7.01697" x2="14.3236" y2="16.0525" gradientUnits="userSpaceOnUse">
<stop stop-color="#FF6C5C"/>
<stop offset="1" stop-color="#C439D6"/>
</linearGradient>
</defs>
</svg>
