<svg width="54" height="21" viewBox="0 0 54 21" fill="none" xmlns="http://www.w3.org/2000/svg">
<g id="giropay">
<path id="Subtract" fill-rule="evenodd" clip-rule="evenodd" d="M4.72572 1.48555C3.48458 1.48753 2.48042 2.37659 2.47801 3.47529V3.47533V16.6854V16.6854C2.47831 16.8227 2.49427 16.9567 2.52437 17.0862C2.55784 17.23 2.60879 17.3682 2.67518 17.4989C3.02695 18.1914 3.81213 18.6736 4.72572 18.6752H28.1121V18.6751V1.48558V1.48555H4.72572ZM4.72571 0H49.4839C51.6522 0.000329101 53.4088 1.55517 53.4096 3.4753V16.6854C53.4088 18.6049 51.6522 20.1599 49.4839 20.1605H4.72571C2.55729 20.1599 0.800792 18.6049 0.800049 16.6854V3.4753C0.800792 1.55517 2.55729 0.000329101 4.72571 0Z" fill="#0F3365"/>
<path id="Union" fill-rule="evenodd" clip-rule="evenodd" d="M31.9396 14.5246H29.9762V7.46423H31.7871V8.37222H31.809C32.2016 7.66712 33.031 7.34839 33.9256 7.34839C35.4968 7.34839 36.3579 8.6717 36.3579 9.88839C36.3579 11.3759 35.4526 12.6122 33.7616 12.6122C33.0745 12.6122 32.3326 12.3904 31.9615 11.7916H31.9396V14.5246ZM33.1403 11.2793C33.8817 11.2793 34.3291 10.7291 34.3291 9.92722C34.3291 9.26046 33.9036 8.68124 33.1403 8.68124C32.4199 8.68124 31.9395 9.24154 31.9395 9.99469C31.9395 10.7291 32.4855 11.2793 33.1403 11.2793ZM43.8818 14.5246C44.2857 14.6021 44.6891 14.6408 45.1038 14.6408C46.8022 14.6408 47.2768 13.5488 47.7918 12.3637C47.8228 12.2925 47.8539 12.2209 47.8855 12.1491L49.9696 7.46423H48.0058L46.8382 10.748H46.8165L45.5945 7.46423H43.4788L45.7796 12.6122C45.6387 13.0565 45.2676 13.3077 44.7883 13.3077C44.5147 13.3077 44.2746 13.2793 44.0133 13.2013L43.8818 14.5246ZM43.15 12.6599C43.0629 12.264 43.0406 11.8683 43.0406 11.472V9.59831C43.0406 8.06256 41.7863 7.5123 40.3353 7.5123C39.4949 7.5123 38.7641 7.61811 38.066 7.8697L38.0983 9.04789C38.6443 8.77769 39.2769 8.67123 39.9093 8.67123C40.6187 8.67123 41.1972 8.8547 41.208 9.54071C40.9571 9.50172 40.6083 9.47243 40.2918 9.47243C39.2444 9.47243 37.3572 9.65656 37.3572 11.1921C37.3572 12.2839 38.3608 12.7764 39.4845 12.7764C40.2918 12.7764 40.8373 12.4959 41.2843 11.8683H41.3057C41.3057 12.0214 41.3172 12.1747 41.3288 12.3297C41.337 12.4387 41.3453 12.5486 41.3497 12.6599H43.15ZM39.1895 11.0668C39.1895 10.5838 39.7131 10.4003 40.3787 10.4003C40.5874 10.4003 40.7905 10.41 40.9803 10.419L40.9804 10.419C41.0586 10.4227 41.1347 10.4263 41.2079 10.4291C41.2079 11.0181 40.7391 11.6177 39.9967 11.6177C39.5387 11.6177 39.1895 11.414 39.1895 11.0668Z" fill="#FFFFFE"/>
<path id="Union_2" fill-rule="evenodd" clip-rule="evenodd" d="M12.9105 12.496H14.874V7.4642H12.9105V12.496ZM12.9105 6.6431H14.8741V5.36816H12.9105V6.6431ZM19.6765 7.34837C19.9053 7.34837 20.1453 7.37734 20.3417 7.4058L20.2433 8.85467C20.0255 8.79691 19.8071 8.79691 19.5783 8.79691C18.6619 8.79691 18.149 9.38617 18.149 10.3717V12.496H16.1854V7.46422H17.9746V8.39113H17.9962C18.3345 7.75399 18.8256 7.34837 19.6765 7.34837ZM27.028 9.9853C27.028 11.6466 25.5987 12.6122 23.7228 12.6122C21.8465 12.6122 20.4173 11.6466 20.4173 9.9853C20.4173 8.31396 21.8465 7.34837 23.7228 7.34837C25.5987 7.34837 27.028 8.31396 27.028 9.9853ZM22.4464 9.98528C22.4464 10.729 22.8173 11.3951 23.7228 11.3951C24.6282 11.3951 24.9992 10.729 24.9992 9.98528C24.9992 9.23181 24.6282 8.56538 23.7228 8.56538C22.8173 8.56538 22.4464 9.23181 22.4464 9.98528ZM9.77691 7.46422H11.5555V11.9074C11.5555 13.974 10.421 14.6408 8.12999 14.6408C7.19194 14.6408 6.41732 14.4665 5.95897 14.3222L6.0574 12.9505C6.65726 13.2113 7.15906 13.3657 7.97733 13.3657C9.11205 13.3657 9.72268 12.8926 9.72268 11.9074V11.6364H9.70058C9.23184 12.2263 8.57737 12.496 7.79198 12.496C6.23179 12.496 5.26086 11.4537 5.26086 9.96571C5.26086 8.46847 6.0574 7.34837 7.82448 7.34837C8.66429 7.34837 9.34085 7.75399 9.75555 8.37188H9.77691V7.46422ZM8.40286 8.68123C7.67189 8.68123 7.29006 9.25107 7.29006 9.93659C7.29006 10.7187 7.81377 11.1635 8.40286 11.1635C9.10078 11.1635 9.65737 10.642 9.65737 9.86896C9.65737 9.3085 9.28631 8.68123 8.40286 8.68123Z" fill="#D8232A"/>
</g>
</svg>
