<svg width="50" height="21" viewBox="0 0 50 21" fill="none" xmlns="http://www.w3.org/2000/svg">
<g id="GooglePay">
<g id="Pay">
<path id="Union" fill-rule="evenodd" clip-rule="evenodd" d="M23.0603 16.5161V10.4741H26.1786C27.4564 10.4741 28.535 10.046 29.4142 9.20154L29.6252 8.98746C31.2313 7.23911 31.1258 4.51549 29.4142 2.89797C28.5584 2.04164 27.3861 1.57779 26.1786 1.60158H21.1729V16.5161H23.0603ZM23.0605 8.64252V3.43316H26.2262C26.9063 3.43316 27.5512 3.69481 28.0319 4.17055C29.052 5.16961 29.0754 6.8347 28.0905 7.86944C27.6098 8.38086 26.9297 8.66631 26.2262 8.64252H23.0605ZM38.4293 7.10829C37.6204 6.359 36.5185 5.97841 35.1234 5.97841C33.3298 5.97841 31.9816 6.64444 31.0906 7.96463L32.7553 9.02315C33.3649 8.11924 34.1973 7.66729 35.2524 7.66729C35.9206 7.66729 36.5653 7.91705 37.0694 8.36901C37.5618 8.79717 37.8432 9.41564 37.8432 10.0698V10.5098C37.1163 10.1055 36.2019 9.89138 35.0765 9.89138C33.7635 9.89138 32.7084 10.2006 31.923 10.831C31.1375 11.4613 30.739 12.2939 30.739 13.3524C30.7155 14.3158 31.1258 15.2316 31.8527 15.85C32.5912 16.5161 33.5291 16.8491 34.631 16.8491C35.9323 16.8491 36.9639 16.2663 37.7494 15.1007H37.8314V16.5161H39.6368V10.2244C39.6368 8.90421 39.2382 7.85758 38.4293 7.10829ZM33.3066 14.6369C32.9197 14.3514 32.6852 13.8876 32.6852 13.3881C32.6852 12.8291 32.9432 12.3652 33.4473 11.9965C33.9632 11.6278 34.6081 11.4375 35.3702 11.4375C36.4255 11.4256 37.2462 11.6635 37.8325 12.1392C37.8325 12.948 37.5159 13.6497 36.8945 14.2444C36.3317 14.8153 35.5696 15.1364 34.7723 15.1364C34.2446 15.1483 33.7287 14.9699 33.3066 14.6369ZM43.693 20.9999L50.0001 6.31143H47.9485L45.0295 13.6378H44.9943L42.0049 6.31143H39.9534L44.0916 15.8619L41.747 20.9999H43.693Z" fill="#3C4043"/>
</g>
<g id="G">
<path id="Blue" d="M16.5442 9.1659C16.5442 8.58312 16.4973 8.00033 16.4035 7.42944H8.44348V10.7239H13.0038C12.8162 11.7825 12.2066 12.734 11.3156 13.3286V15.4695H14.0354C15.6298 13.9828 16.5442 11.7825 16.5442 9.1659Z" fill="#4285F4"/>
<path id="Green" d="M8.44385 17.539C10.7181 17.539 12.6407 16.7778 14.0358 15.4695L11.316 13.3287C10.554 13.852 9.58099 14.1493 8.44385 14.1493C6.2399 14.1493 4.37593 12.6388 3.70771 10.6169H0.905884V12.8291C2.3361 15.7193 5.25516 17.539 8.44385 17.539Z" fill="#34A853"/>
<path id="Yellow" d="M3.70803 10.6169C3.35628 9.55842 3.35628 8.40475 3.70803 7.33433V5.13403H0.905755C-0.301918 7.54842 -0.301918 10.4029 0.905755 12.8172L3.70803 10.6169Z" fill="#FBBC04"/>
<path id="Red" d="M8.44385 3.80191C9.65133 3.77813 10.8119 4.24198 11.6794 5.08642L14.0944 2.63635C12.5587 1.18534 10.5423 0.388474 8.44385 0.412261C5.25516 0.412261 2.3361 2.24386 0.905884 5.13399L3.70771 7.34618C4.37593 5.31239 6.2399 3.80191 8.44385 3.80191Z" fill="#EA4335"/>
</g>
</g>
</svg>
