<svg width="34" height="34" viewBox="0 0 34 34" fill="none" xmlns="http://www.w3.org/2000/svg">
<g id="Interac">
<path id="Vector" fill-rule="evenodd" clip-rule="evenodd" d="M33.4216 30.6847C33.4216 31.4098 33.1335 32.1053 32.6208 32.618C32.108 33.1307 31.4126 33.4188 30.6875 33.4188H3.31851C2.9592 33.4192 2.60333 33.3488 2.27126 33.2116C1.93918 33.0744 1.63741 32.873 1.3832 32.6191C1.12898 32.3652 0.927312 32.0636 0.789717 31.7317C0.652121 31.3998 0.581299 31.044 0.581299 30.6847V3.31699C0.581299 2.95768 0.652121 2.60189 0.789717 2.26997C0.927312 1.93806 1.12898 1.63651 1.3832 1.38259C1.63741 1.12866 1.93918 0.927334 2.27126 0.790116C2.60333 0.652897 2.9592 0.582479 3.31851 0.582888H30.6856C31.4107 0.582888 32.1062 0.870944 32.6189 1.38369C33.1316 1.89643 33.4197 2.59186 33.4197 3.31699L33.4216 30.6847Z" fill="#EDAA00"/>
<path id="Vector_2" d="M18.9178 17.3554V11.4752L20.4532 11.1117V11.8816C20.4532 11.8816 20.8503 10.8681 21.7724 10.6326C22.0564 10.5612 22.1993 10.604 22.1993 10.604V12.1041C21.923 12.1078 21.65 12.1648 21.3953 12.2718C20.8261 12.4962 20.5402 12.987 20.5402 13.7327V16.9795L18.9178 17.3554ZM10.8267 19.2674C10.8267 19.2674 10.5782 18.8946 10.5782 17.5698V14.6424L9.78776 14.8288V13.624L10.5788 13.4376V12.1227L12.2112 11.7374V13.0492L13.3645 12.7758V13.9813L12.2112 14.2553V17.2379C12.2112 18.5932 12.5709 18.8536 12.5709 18.8536L10.8267 19.2674ZM13.5347 15.7696C13.5347 14.7238 13.6839 13.9614 14.0032 13.376C14.3829 12.6813 15.0074 12.229 15.9159 12.022C17.7061 11.615 18.3517 12.6751 18.3262 14.0956C18.3181 14.6033 18.32 14.8512 18.32 14.8512L15.1659 15.5925V15.6435C15.1659 16.6377 15.3746 17.1081 16.0035 16.9739C16.5466 16.8595 16.6976 16.519 16.7404 16.0989C16.7479 16.03 16.7504 15.8579 16.7504 15.8579L18.2287 15.5037C18.2287 15.5037 18.2324 15.6248 18.2287 15.7597C18.215 16.3245 18.051 17.7251 15.9973 18.2098C14.0523 18.6715 13.5329 17.4834 13.5329 15.7696H13.5347ZM15.9793 13.1169C15.4567 13.2356 15.1826 13.7482 15.1714 14.5977L16.7585 14.2199C16.7616 14.1813 16.7616 14.0956 16.7616 13.9639C16.7585 13.3232 16.5602 12.9852 15.9799 13.1169H15.9793ZM27.721 12.3309C27.6588 10.54 28.1236 9.11829 30.1214 8.66468C31.3965 8.37512 31.8793 8.70569 32.1241 9.02571C32.3596 9.33143 32.4503 9.74341 32.4503 10.3207V10.4276L30.8857 10.8004V10.5823C30.8857 9.89876 30.6993 9.63777 30.2022 9.76205C29.6112 9.91056 29.3726 10.4711 29.3726 11.5871V12.1072C29.3726 13.2412 29.528 13.7607 30.2084 13.6178C30.7999 13.4935 30.8807 12.9765 30.8919 12.5216C30.8919 12.4502 30.8962 12.2215 30.8962 12.2215L32.4584 11.8536V12.0966C32.4541 13.583 31.6705 14.52 30.2015 14.8618C28.1802 15.3365 27.7837 14.1664 27.7216 12.3309H27.721ZM22.3168 14.8375C22.3168 13.4755 23.1159 13.0448 24.317 12.5483C25.3964 12.1016 25.4193 11.8797 25.4243 11.492C25.4299 11.1658 25.2789 10.8855 24.7408 11.0228C24.2468 11.1471 24.1157 11.5063 24.0896 11.7921C24.0805 11.8925 24.0772 11.9933 24.0796 12.0941L22.5653 12.4514C22.5551 12.1496 22.5903 11.848 22.6697 11.5566C22.9121 10.742 23.631 10.1939 24.87 9.90746C26.4807 9.53462 27.0182 10.243 27.0207 11.3429V13.9471C27.0207 15.2066 27.2543 15.3906 27.2543 15.3906L25.7673 15.7429C25.6851 15.571 25.6182 15.3921 25.5672 15.2085C25.5672 15.2085 25.2423 16.0281 24.12 16.2928C22.9394 16.57 22.318 15.8405 22.318 14.8382L22.3168 14.8375ZM25.4156 12.9783C25.1649 13.1541 24.9001 13.3089 24.624 13.4413C24.1269 13.6842 23.9038 13.9825 23.9038 14.4423C23.9038 14.8406 24.1523 15.1029 24.5997 14.991C25.0813 14.8705 25.4156 14.4212 25.4156 13.798V12.9783ZM2.29384 23.3891C2.12415 23.3887 1.95769 23.3426 1.81198 23.2556C1.66627 23.1686 1.54671 23.044 1.46588 22.8948C1.38504 22.7456 1.34593 22.5774 1.35265 22.4078C1.35937 22.2382 1.41167 22.0736 1.50406 21.9313L1.514 21.9182L1.53202 21.9139L3.75037 21.3901V23.0759L3.71557 23.0839C3.21225 23.2051 2.61075 23.3424 2.48647 23.3679C2.42284 23.3822 2.35781 23.3893 2.2926 23.3891H2.29384ZM2.29384 25.5459C2.04454 25.5459 1.8054 25.4471 1.62883 25.2711C1.45225 25.0951 1.35264 24.8563 1.35182 24.607C1.35083 24.425 1.40381 24.2468 1.50406 24.0949L1.514 24.0782L1.53202 24.0744L3.75037 23.5506V25.2364L3.71557 25.2458C3.21225 25.3663 2.61075 25.5061 2.48647 25.5303C2.42261 25.5429 2.35768 25.5491 2.2926 25.549L2.29384 25.5459ZM2.29384 27.7064C2.04395 27.7063 1.80434 27.6069 1.6277 27.4301C1.45105 27.2534 1.35182 27.0137 1.35182 26.7638C1.35083 26.5818 1.40381 26.4036 1.50406 26.2518L1.514 26.2344L3.75099 25.7074V27.3933L3.7162 27.402C3.18491 27.53 2.59397 27.6636 2.48709 27.6878C2.42319 27.7 2.35828 27.7062 2.29322 27.7064" fill="#231F20"/>
<path id="Vector_3" d="M2.03285 21.3229L2.03223 11.8909L3.7516 11.4845V20.9159L2.03285 21.3229Z" fill="#231F20"/>
<path id="Vector_4" d="M6.31613 20.5207C6.30942 20.2437 6.1947 19.9804 5.99645 19.7869C5.7982 19.5934 5.53214 19.485 5.25511 19.485C4.97807 19.485 4.71202 19.5934 4.51377 19.7869C4.31552 19.9804 4.20079 20.2437 4.19409 20.5207V29.3369C4.19541 30.0983 4.4984 30.8281 5.03671 31.3665C5.57502 31.905 6.30477 32.2081 7.06614 32.2096C7.86897 32.2096 10.0687 32.2059 10.0687 32.2059V24.4267C10.0691 24.198 10.013 23.9728 9.90531 23.7711C9.79766 23.5693 9.64182 23.3973 9.45164 23.2703L6.77471 21.4521V25.5806C6.77632 25.6115 6.77163 25.6425 6.76092 25.6715C6.7502 25.7005 6.73369 25.7271 6.71238 25.7495C6.69107 25.772 6.66542 25.7898 6.63698 25.8021C6.60855 25.8143 6.57792 25.8206 6.54697 25.8206C6.51602 25.8206 6.4854 25.8143 6.45696 25.8021C6.42852 25.7898 6.40287 25.772 6.38156 25.7495C6.36026 25.7271 6.34374 25.7005 6.33303 25.6715C6.32231 25.6425 6.31762 25.6115 6.31923 25.5806C6.31923 25.5365 6.31364 21.0656 6.31364 20.5207H6.31613ZM7.74904 13.9433C7.42395 14.0184 7.11889 14.1628 6.85466 14.3666C6.59044 14.5703 6.37326 14.8286 6.21795 15.1239V14.4634L4.67007 14.83V19.0635C4.94157 18.9564 5.23738 18.9264 5.52488 18.9767C5.81238 19.027 6.08039 19.1558 6.29935 19.3488V16.6147C6.29935 15.9603 6.6262 15.4371 7.091 15.3346C7.44208 15.2575 7.73413 15.3831 7.73413 16.0063V19.995L9.36403 19.6122V15.3936C9.36403 14.3702 8.97131 13.6537 7.74842 13.9433H7.74904ZM31.4456 7.90655C31.2461 7.90667 31.0511 7.84764 30.8852 7.73693C30.7193 7.62621 30.5899 7.46878 30.5135 7.28455C30.437 7.10032 30.4169 6.89755 30.4557 6.7019C30.4945 6.50624 30.5905 6.32648 30.7314 6.18535C30.8724 6.04422 31.052 5.94806 31.2476 5.90903C31.4432 5.86999 31.646 5.88984 31.8304 5.96606C32.0147 6.04228 32.1723 6.17144 32.2832 6.33722C32.3941 6.503 32.4534 6.69795 32.4535 6.89742C32.453 7.16452 32.3466 7.42053 32.1577 7.60934C31.9688 7.79815 31.7127 7.90435 31.4456 7.90468V7.90655ZM31.4456 6.01505C31.2712 6.01505 31.1008 6.06674 30.9558 6.1636C30.8108 6.26046 30.6978 6.39814 30.631 6.55922C30.5643 6.7203 30.5468 6.89756 30.5808 7.06859C30.6147 7.23961 30.6986 7.39672 30.8219 7.52006C30.9451 7.6434 31.1022 7.72743 31.2732 7.76152C31.4442 7.79562 31.6215 7.77824 31.7826 7.7116C31.9437 7.64496 32.0815 7.53204 32.1785 7.38712C32.2754 7.2422 32.3272 7.07178 32.3274 6.89742C32.327 6.6636 32.234 6.43946 32.0688 6.27407C31.9035 6.10868 31.6794 6.01554 31.4456 6.01505Z" fill="#231F20"/>
<path id="Vector_5" d="M31.0784 6.29773H31.5133C31.6867 6.29773 31.824 6.3841 31.824 6.61339C31.824 6.77309 31.7532 6.89612 31.619 6.91725C31.7433 6.92968 31.8054 6.99679 31.811 7.17016C31.811 7.24783 31.8147 7.34477 31.8184 7.41871C31.8184 7.43983 31.8237 7.46061 31.834 7.4791C31.8442 7.49758 31.8589 7.51315 31.8769 7.52435H31.6556C31.6334 7.49248 31.6217 7.45446 31.6221 7.4156C31.6146 7.34166 31.6159 7.27268 31.6134 7.18321C31.6134 7.04899 31.5693 6.98995 31.4338 6.98995H31.2778V7.52435H31.0809L31.0784 6.29773ZM31.4319 6.84579C31.4587 6.84826 31.4856 6.84475 31.5108 6.83552C31.536 6.82628 31.5588 6.81155 31.5776 6.79239C31.5964 6.77323 31.6107 6.75013 31.6195 6.72476C31.6283 6.69939 31.6313 6.67238 31.6283 6.64571C31.6283 6.51459 31.5724 6.44624 31.4419 6.44624H31.2778V6.84579H31.4319Z" fill="#231F20"/>
</g>
</svg>
