<svg width="38" height="30" viewBox="0 0 38 30" fill="none" xmlns="http://www.w3.org/2000/svg">
<g id="JCB">
<path id="Vector" d="M28.6364 15.5747C29.6638 15.597 30.697 15.5293 31.7202 15.6098C32.7565 15.8032 33.0062 17.3719 32.0856 17.8857C31.4574 18.2242 30.7112 18.0118 30.0302 18.0715H28.6364V15.5747ZM32.3142 12.7486C32.5425 13.5543 31.7658 14.2777 30.9899 14.1667H28.6364C28.6529 13.4069 28.6042 12.5823 28.6603 11.8625C29.6031 11.8891 30.5546 11.8084 31.492 11.9047C31.8947 12.0059 32.2318 12.337 32.3142 12.7486ZM37.9782 0.800959C38.0219 2.33956 37.9845 3.95949 37.9971 5.5293C37.9942 11.9116 38.0032 18.2937 37.992 24.6763C37.9507 27.0683 35.8309 29.1467 33.4556 29.1944C31.0779 29.2041 28.6999 29.1959 26.3219 29.1985V19.5498C28.9128 19.5365 31.5051 19.577 34.095 19.5296C35.2964 19.4542 36.6124 18.6615 36.6683 17.3393C36.8098 16.0114 35.5579 15.093 34.3693 14.9479C33.9124 14.936 33.9257 14.8147 34.3693 14.7618C35.5029 14.5168 36.3931 13.3435 36.0596 12.1684C35.7754 10.9325 34.4093 10.4541 33.2731 10.4565C30.9564 10.4408 28.6392 10.4543 26.3224 10.4497C26.3374 8.64844 26.2912 6.84522 26.3473 5.04524C26.5309 2.6965 28.704 0.759551 31.046 0.801574C33.357 0.801223 35.6677 0.801223 37.9782 0.801135V0.800959Z" fill="url(#paint0_linear_909_69408)"/>
<path id="Vector_2" d="M0.141213 5.28845C0.20038 2.90032 2.32925 0.838976 4.70155 0.804074C7.07042 0.796777 9.43965 0.803019 11.8085 0.800909C11.802 8.79108 11.8214 16.7821 11.7988 24.7719C11.7075 27.131 9.60185 29.153 7.25539 29.1948C4.88204 29.2034 2.50842 29.196 0.134971 29.1984V19.2244C2.44037 19.769 4.85795 20.0009 7.20986 19.6396C8.61571 19.4134 10.1539 18.723 10.6298 17.2645C10.9801 16.0169 10.7829 14.7039 10.835 13.4234V10.4497H6.76483C6.74654 12.4164 6.80228 14.3866 6.73538 16.351C6.62566 17.5584 5.42992 18.3256 4.29116 18.2846C2.87889 18.2995 0.0802874 17.2611 0.0802874 17.2611C0.0732541 13.5762 0.121257 8.96146 0.141213 5.2888V5.28845Z" fill="url(#paint1_linear_909_69408)"/>
<path id="Vector_3" d="M13.3264 11.6492C13.1121 11.6947 13.2833 10.9194 13.2285 10.6254C13.2431 8.76596 13.198 6.90453 13.2534 5.04645C13.4365 2.68777 15.6263 0.745987 17.9778 0.801198H24.9026C24.8961 8.79137 24.9154 16.7824 24.8929 24.7721C24.8015 27.1313 22.6957 29.1532 20.3492 29.1951C17.9757 29.204 15.6021 29.1965 13.2284 29.1988V18.2709C14.8495 19.601 17.0527 19.808 19.0723 19.8116C20.5948 19.8111 22.1084 19.5764 23.587 19.2252V17.2232C21.9207 18.0537 19.962 18.5812 18.1149 18.104C16.8264 17.7833 15.8911 16.5381 15.912 15.2084C15.7627 13.8256 16.5732 12.3656 17.9321 11.9546C19.6193 11.4264 21.4581 11.8303 23.0396 12.517C23.3784 12.6945 23.7224 12.9145 23.5869 12.3482V10.7746C20.9419 10.1453 18.127 9.91369 15.4697 10.5983C14.7006 10.8153 13.9512 11.1443 13.3264 11.6494V11.6492Z" fill="url(#paint2_linear_909_69408)"/>
</g>
<defs>
<linearGradient id="paint0_linear_909_69408" x1="26.2422" y1="14.3926" x2="37.9234" y2="14.3926" gradientUnits="userSpaceOnUse">
<stop stop-color="#58B03A"/>
<stop offset="1" stop-color="#55B330"/>
</linearGradient>
<linearGradient id="paint1_linear_909_69408" x1="-0.113399" y1="15.2716" x2="11.6171" y2="15.2716" gradientUnits="userSpaceOnUse">
<stop stop-color="#0F6EB6"/>
<stop offset="1" stop-color="#006DBA"/>
</linearGradient>
<linearGradient id="paint2_linear_909_69408" x1="13.2113" y1="14.6679" x2="24.9004" y2="14.6679" gradientUnits="userSpaceOnUse">
<stop stop-color="#DE0D3D"/>
<stop offset="1" stop-color="#E30138"/>
</linearGradient>
</defs>
</svg>
