<svg width="46" height="29" viewBox="0 0 46 29" fill="none" xmlns="http://www.w3.org/2000/svg">
<g id="Maestro">
<path id="Left" d="M28.1899 14.254C28.1899 21.8788 22.0796 28.0599 14.5423 28.0599C7.00499 28.0599 0.894775 21.8788 0.894775 14.254C0.894775 6.62914 7.00499 0.447998 14.5423 0.447998C22.0796 0.447998 28.1899 6.62914 28.1899 14.254Z" fill="#ED0006"/>
<path id="Right" d="M45.8948 14.254C45.8948 21.8788 39.7846 28.0599 32.2473 28.0599C24.7099 28.0599 18.5997 21.8788 18.5997 14.254C18.5997 6.62914 24.7099 0.447998 32.2473 0.447998C39.7846 0.447998 45.8948 6.62914 45.8948 14.254Z" fill="#0099DF"/>
<path id="Middle" fill-rule="evenodd" clip-rule="evenodd" d="M23.3949 3.74609C26.3292 6.27836 28.1899 10.0463 28.1899 14.254C28.1899 18.4616 26.3292 22.2295 23.3949 24.7618C20.4605 22.2295 18.5999 18.4616 18.5999 14.254C18.5999 10.0463 20.4605 6.27836 23.3949 3.74609Z" fill="#6C6BBD"/>
</g>
</svg>
