<svg width="40" height="36" viewBox="0 0 40 36" fill="none" xmlns="http://www.w3.org/2000/svg">
<g id="PayPal">
<path id="Vector" fill-rule="evenodd" clip-rule="evenodd" d="M4.80001 24.4819H1.68878C1.47588 24.4819 1.2948 24.6367 1.2616 24.8468L0.00326376 32.8249C-0.0217468 32.9824 0.10017 33.1243 0.259855 33.1243H1.74519C1.95809 33.1243 2.13916 32.9695 2.17236 32.759L2.51175 30.6072C2.54449 30.3965 2.72601 30.2419 2.93847 30.2419H3.92338C5.97286 30.2419 7.1556 29.2502 7.46465 27.2849C7.60381 26.4251 7.47054 25.7495 7.06781 25.2762C6.6257 24.7569 5.84128 24.4819 4.80001 24.4819ZM5.15896 27.3958C4.98885 28.5123 4.13584 28.5123 3.31106 28.5123H2.84157L3.17094 26.4272C3.19049 26.3013 3.29967 26.2085 3.42706 26.2085H3.64224C4.20407 26.2085 4.73412 26.2085 5.00801 26.5287C5.17117 26.7198 5.22128 27.0036 5.15896 27.3958ZM14.1002 27.36H12.6103C12.4834 27.36 12.3737 27.4529 12.3541 27.579L12.2882 27.9956L12.184 27.8447C11.8615 27.3765 11.1423 27.22 10.4244 27.22C8.77792 27.22 7.37181 28.467 7.09791 30.2163C6.9556 31.0887 7.15791 31.923 7.65286 32.5049C8.10697 33.0398 8.75665 33.2628 9.5295 33.2628C10.856 33.2628 11.5918 32.4097 11.5918 32.4097L11.5253 32.8238C11.5002 32.9822 11.6221 33.1241 11.7809 33.1241H13.123C13.3365 33.1241 13.5165 32.9693 13.5501 32.7588L14.3554 27.6594C14.3809 27.5026 14.2594 27.36 14.1002 27.36ZM12.0234 30.2598C11.8796 31.111 11.204 31.6824 10.3426 31.6824C9.90992 31.6824 9.56402 31.5436 9.34213 31.2807C9.12192 31.0196 9.03813 30.6478 9.10823 30.2339C9.24255 29.3899 9.9295 28.8 10.7779 28.8C11.2009 28.8 11.5449 28.9405 11.7714 29.2057C11.9983 29.4737 12.0885 29.8476 12.0234 30.2598ZM20.5379 27.3598H22.0352C22.2449 27.3598 22.3672 27.595 22.2481 27.767L17.2685 34.9548C17.1878 35.0712 17.055 35.1405 16.9131 35.1405H15.4177C15.2072 35.1405 15.0842 34.9034 15.2061 34.731L16.7567 32.5424L15.1076 27.7028C15.0506 27.5346 15.1748 27.3598 15.3537 27.3598H16.8249C17.016 27.3598 17.1847 27.4853 17.2398 27.6683L18.115 30.5912L20.1801 27.5495C20.2609 27.4308 20.3952 27.3598 20.5379 27.3598Z" fill="#253B80"/>
<path id="Vector_2" fill-rule="evenodd" clip-rule="evenodd" d="M36.7708 32.8248L38.0476 24.7008C38.0672 24.5747 38.1765 24.4819 38.3034 24.4814H39.7409C39.8996 24.4814 40.0215 24.6238 39.9965 24.7812L38.7373 32.7589C38.7045 32.9695 38.5234 33.1242 38.3102 33.1242H37.0264C36.8676 33.1242 36.7457 32.9823 36.7708 32.8248ZM26.992 24.4819H23.8802C23.6678 24.4819 23.4867 24.6366 23.4535 24.8467L22.1952 32.8248C22.1701 32.9823 22.292 33.1242 22.451 33.1242H24.0476C24.196 33.1242 24.323 33.016 24.3461 32.8686L24.7032 30.6071C24.736 30.3964 24.9175 30.2419 25.1299 30.2419H26.1143C28.1642 30.2419 29.3468 29.2501 29.656 27.2848C29.7956 26.425 29.6615 25.7494 29.259 25.2762C28.8171 24.7568 28.0333 24.4819 26.992 24.4819ZM27.351 27.3958C27.1813 28.5122 26.3282 28.5122 25.503 28.5122H25.0339L25.3638 26.4271C25.3834 26.3012 25.4916 26.2084 25.6194 26.2084H25.8345C26.396 26.2084 26.9265 26.2084 27.2002 26.5286C27.3636 26.7198 27.4133 27.0036 27.351 27.3958ZM36.2914 27.36H34.8026C34.6746 27.36 34.5659 27.4528 34.5468 27.5789L34.4809 27.9956L34.3763 27.8446C34.0537 27.3764 33.335 27.22 32.6171 27.22C30.9706 27.22 29.5649 28.4669 29.291 30.2162C29.1491 31.0886 29.3506 31.9229 29.8455 32.5048C30.3005 33.0398 30.9493 33.2627 31.7221 33.2627C33.0487 33.2627 33.7842 32.4097 33.7842 32.4097L33.7179 32.8238C33.6929 32.9821 33.8148 33.124 33.9746 33.124H35.316C35.5285 33.124 35.7095 32.9693 35.7428 32.7587L36.5485 27.6593C36.5731 27.5025 36.4512 27.36 36.2914 27.36ZM34.2148 30.2598C34.0718 31.1109 33.3954 31.6823 32.5337 31.6823C32.1019 31.6823 31.7554 31.5436 31.5333 31.2806C31.3131 31.0196 31.2303 30.6478 31.2996 30.2339C31.4346 29.3899 32.1207 28.8 32.9691 28.8C33.3922 28.8 33.736 28.9404 33.9628 29.2057C34.1906 29.4737 34.2807 29.8476 34.2148 30.2598Z" fill="#179BD7"/>
<path id="Vector_3" d="M16.314 21.6277L16.6966 19.1983L15.8446 19.1785H11.7761L14.6035 1.25081C14.6121 1.19668 14.6408 1.14622 14.6824 1.11039C14.7241 1.07456 14.7776 1.05481 14.8332 1.05481H21.6932C23.9707 1.05481 25.5423 1.52873 26.3629 2.46412C26.7475 2.90294 26.9926 3.36149 27.1111 3.86612C27.2353 4.39564 27.2376 5.02825 27.1162 5.79983L27.1073 5.85615V6.35053L27.4922 6.56849C27.8162 6.74034 28.0734 6.93708 28.2709 7.16234C28.6002 7.53752 28.813 8.01436 28.9029 8.57969C28.9957 9.16112 28.965 9.85298 28.813 10.6363C28.6374 11.5373 28.3536 12.322 27.9705 12.9642C27.6178 13.5558 27.1688 14.0465 26.6357 14.4269C26.1267 14.7881 25.5218 15.0625 24.838 15.238C24.1753 15.4105 23.4199 15.4976 22.5913 15.4976H22.0574C21.6757 15.4976 21.3048 15.6351 21.0138 15.8816C20.722 16.1332 20.5288 16.4768 20.4696 16.8528L20.4294 17.0715L19.7536 21.3534L19.7229 21.5107C19.7149 21.5606 19.701 21.5854 19.6806 21.6023C19.6622 21.6174 19.6359 21.6277 19.6102 21.6277H16.314Z" fill="#253B80"/>
<path id="Vector_4" d="M27.8563 5.91345C27.8358 6.04436 27.8125 6.17819 27.7862 6.31568C26.8813 10.9605 23.7864 12.5651 19.8333 12.5651H17.8207C17.3373 12.5651 16.9299 12.9161 16.8545 13.393L15.824 19.9284L15.5322 21.7809C15.4832 22.0939 15.7247 22.3762 16.0404 22.3762H19.6103C20.0331 22.3762 20.392 22.0691 20.4586 21.6522L20.4937 21.4707L21.1659 17.2055L21.2091 16.9716C21.2748 16.5533 21.6346 16.2461 22.0573 16.2461H22.5912C26.0497 16.2461 28.7573 14.8419 29.5487 10.7784C29.8792 9.08093 29.7081 7.66358 28.8333 6.66674C28.5687 6.36615 28.2403 6.11676 27.8563 5.91345Z" fill="#179BD7"/>
<path id="Vector_5" d="M26.9096 5.53639C26.7715 5.49616 26.6288 5.45959 26.4825 5.42668C26.3355 5.39451 26.1848 5.36599 26.0298 5.34112C25.4871 5.25335 24.8926 5.21167 24.2555 5.21167H18.8787C18.7463 5.21167 18.6206 5.24165 18.5079 5.29578C18.2599 5.41498 18.0757 5.64976 18.0311 5.93717L16.8871 13.182L16.8542 13.3933C16.9296 12.9165 17.337 12.5654 17.8204 12.5654H19.833C23.7861 12.5654 26.8812 10.9601 27.7859 6.31601C27.8128 6.17851 27.8355 6.04468 27.856 5.91378C27.6271 5.79237 27.3791 5.68851 27.1122 5.60001C27.0465 5.57807 26.9785 5.55687 26.9096 5.53639Z" fill="#222D65"/>
<path id="Vector_6" d="M18.0311 5.93696C18.0758 5.64953 18.2602 5.41477 18.508 5.29629C18.6215 5.24216 18.7465 5.21218 18.8787 5.21218H24.2558C24.8928 5.21218 25.4874 5.25387 26.0299 5.34163C26.185 5.3665 26.3358 5.39502 26.4827 5.42719C26.629 5.46012 26.7716 5.49669 26.9099 5.5369C26.9785 5.55738 27.0465 5.57858 27.1131 5.5998C27.38 5.68829 27.628 5.79288 27.8568 5.91355C28.1261 4.19706 27.8547 3.02837 26.9267 1.97009C25.9036 0.805054 24.0568 0.306274 21.6939 0.306274H14.8337C14.3509 0.306274 13.9393 0.657307 13.8646 1.13489L11.0073 19.2468C10.9509 19.6052 11.2273 19.9285 11.5886 19.9285H15.824L16.8873 13.1817L18.0311 5.93696Z" fill="#253B80"/>
</g>
</svg>
