<svg width="49" height="18" viewBox="0 0 49 18" fill="none" xmlns="http://www.w3.org/2000/svg">
<g id="Poli">
<path id="Union" fill-rule="evenodd" clip-rule="evenodd" d="M31.8513 17.2504H42.2375V12.5963H36.975V1.72131H31.8513V17.2504ZM0 1.81298V17.3183L4.62906 17.3251V12.5928H5.67046C7.51549 12.5928 9.62087 12.2071 10.5755 11.2827C11.5301 10.3583 11.9241 8.97346 11.9241 7.20458C11.9464 6.25505 11.7692 5.31116 11.4034 4.43147C11.1041 3.70771 10.5793 3.09471 9.90379 2.67958C9.23148 2.31133 8.50302 2.05143 7.74634 1.90984C7.14395 1.80351 6.06197 1.80718 4.84205 1.81132C4.59972 1.81214 4.35195 1.81298 4.10141 1.81298H0ZM4.80783 9.7551C4.73579 9.75402 4.6639 9.74834 4.59261 9.73811L4.5874 4.96672V4.70674C5.50731 4.70674 6.34044 4.83078 6.68757 5.19441C7.18442 5.72135 7.18348 6.26995 7.18235 6.93026L7.18224 7.02617C7.18224 7.87237 7.17183 8.78655 6.8351 9.19606C6.61641 9.46114 6.23803 9.80778 4.80783 9.7551ZM48.0348 7.07713H43.1263V17.2724H48.0348V7.07713ZM43.0569 1.78928H48.0696V6.00502H43.0569V1.78928Z" fill="black"/>
<path id="Vector" fill-rule="evenodd" clip-rule="evenodd" d="M24.9626 16.1816C25.6239 15.9488 26.2765 15.4577 26.8389 14.9582C28.4236 13.5444 30.0933 11.1451 29.9631 8.22419C29.8277 5.14862 28.1424 3.17753 25.8982 1.949C26.5456 2.08833 27.0802 2.50974 27.5783 2.90566C29.0189 4.04753 30.1124 5.81641 30.1593 8.30236C30.2217 11.609 28.4236 13.8639 26.641 15.4187C27.1999 15.1468 27.6304 14.6438 28.0469 14.1561C29.2272 12.773 30.3137 10.8036 30.3137 8.33974C30.3137 4.87164 28.3108 2.87507 25.9745 1.56837C26.7273 1.8065 27.4199 2.19798 28.007 2.71704C28.87 3.45214 29.5454 4.3746 29.9794 5.41077C30.4134 6.44693 30.5938 7.56808 30.5064 8.68468C30.3647 11.1182 29.2736 13.4054 27.4585 15.0737C25.6711 16.7457 23.3552 17.7717 20.8925 17.9828C20.5672 18.0057 20.2406 18.0057 19.9153 17.9828C15.8364 17.6514 12.8771 15.0941 12.5682 11.1723C12.536 10.7646 12.536 10.355 12.5682 9.9472C12.7417 7.47314 13.8838 5.50205 15.3817 3.97956C17.0115 2.32282 19.0717 1.0739 21.946 0.880193C22.0172 0.572635 22.1005 0.220898 22.1439 0C23.0898 0.983845 24.2389 2.05605 25.4261 3.21321C23.9959 3.93028 22.6038 4.68473 21.2049 5.43239C21.2361 5.15202 21.3021 4.83256 21.3212 4.62866C18.9207 5.04496 16.8969 6.75098 16.4769 9.14347C15.9562 12.0627 17.9557 14.2938 20.8161 14.3091C23.706 14.3244 26.1585 12.1392 26.5994 9.64134C26.9465 7.62267 26.044 6.21232 24.8793 5.27946C25.9659 5.98293 27.1357 7.25394 26.9899 9.14347C26.7539 12.1035 23.9108 14.5555 20.9359 14.5776C20.1536 14.5806 19.3803 14.4147 18.6711 14.0916C17.9618 13.7685 17.3341 13.2962 16.8327 12.7084C17.8064 14.095 19.5091 14.8256 21.4444 14.6982C22.9649 14.5979 24.251 13.8673 25.1969 12.9769C26.1429 12.0865 26.9153 10.8019 27.1062 9.49521C27.1834 8.97515 27.1834 8.44689 27.1062 7.92683C26.8684 6.39754 25.9207 5.68557 25.0529 4.69833C26.2887 5.66348 27.5835 6.94978 27.4985 9.03132C27.37 12.0729 24.3951 14.7543 21.283 14.9616C19.2418 15.0975 17.9852 14.4144 16.9056 13.4323C17.9279 14.6999 19.8563 15.3507 21.8697 15.0397C24.7422 14.5962 27.3023 12.2496 27.6147 9.33888C27.8959 6.71019 26.5369 5.49016 25.2386 4.20216C26.6271 5.22168 27.8022 6.36186 27.8873 8.45868C27.9619 10.2802 27.0559 12.0627 25.8947 13.2029C24.0375 15.0261 20.4204 16.2224 17.6086 14.5419C20.0038 16.3311 23.7234 15.3065 25.6986 13.5478C27.1322 12.2734 28.1788 10.5742 28.0053 8.03728C27.8647 5.99822 26.6844 4.95491 25.348 3.86741C26.7226 4.55729 28.0487 5.93705 28.2396 7.92343C28.4947 10.5232 27.2711 12.4433 25.7819 13.7347C23.982 15.2895 21.4427 16.2156 18.591 15.4951C23.3155 16.9361 27.7328 13.502 28.3611 9.52749C28.8124 6.67111 27.3197 4.98719 25.8999 3.78755C25.7541 3.6652 25.6708 3.57684 25.4712 3.40522C27.5002 4.43835 29.1855 6.72209 28.519 9.9472C27.7432 13.7025 23.9004 16.7441 18.9433 15.9539C19.6636 16.236 20.5054 16.1748 21.2309 16.1374C23.4873 16.0134 25.5285 14.9106 26.6219 13.7228C27.948 12.2785 28.9981 10.4587 28.795 7.83677C28.611 5.45787 27.2572 4.3279 25.6014 3.07897C26.2952 3.35156 26.9123 3.7827 27.4013 4.33639C28.3456 5.31723 28.9188 6.58475 29.0259 7.92853C29.2272 10.632 27.9584 12.6405 26.5647 14.0457C25.0789 15.5461 23.0655 16.5096 20.5071 16.5316C24.52 16.6506 27.186 14.2394 28.4791 11.5581C29.2203 10.0288 29.4355 7.85716 28.8263 6.16305C28.2691 4.60317 26.9916 3.53267 25.7367 2.66437C27.9289 3.81134 29.7739 5.96424 29.373 9.2998C29.2378 10.4516 28.8481 11.5609 28.2309 12.5504C27.035 14.5147 25.0789 15.8961 22.885 16.6472C24.5096 16.3074 26.0509 15.3507 27.1843 14.1205C28.5728 12.6201 29.6386 10.722 29.5691 8.07636C29.491 5.22848 27.6929 3.58704 25.8565 2.29904C25.8804 2.30227 25.9037 2.30856 25.9259 2.31773C27.9306 3.27948 29.4476 4.94811 29.7635 7.54111C30.2669 11.6345 27.5141 14.6234 24.9626 16.1816Z" fill="#30469D"/>
</g>
</svg>
