<svg width="70" height="48" viewBox="0 0 70 48" fill="none" xmlns="http://www.w3.org/2000/svg">
<g id="Type=Sofort, Size=x-large">
<rect id="BASE" x="0.5" y="0.5" width="69" height="47" rx="5.5" fill="#F884A1" stroke="#D9D9D9"/>
<path id="Sofort" fill-rule="evenodd" clip-rule="evenodd" d="M40.732 18.8712L42.6669 9.23619C42.8997 8.15529 42.2595 7.06606 41.1869 6.75011C39.9896 6.45078 38.784 7.14921 38.4763 8.32989L36.7231 14.3324L35.3411 8.42136C35.233 7.87259 34.9004 7.38202 34.4265 7.06607C33.9525 6.75011 33.3622 6.64202 32.8051 6.75842C31.7076 6.99123 30.9925 8.27169 31.2669 9.43575L32.0823 16.1315C31.3739 15.4253 30.5466 15.2078 29.5879 15.7632L29.4631 15.8464C28.5894 16.4414 28.4117 17.6573 28.9731 18.7647C28.5083 18.7909 28.0541 18.9847 27.7086 19.3385L27.6255 19.43C26.8189 20.2614 26.9769 21.6666 27.983 22.6727L28.8003 23.4873C28.8922 27.2526 31.9551 29.8898 35.5663 29.8898C35.6091 29.8898 35.6503 29.8839 35.6894 29.873C40.581 29.8241 42.7308 26.9106 43.0992 22.4898C43.2156 21.0929 42.9579 20.1367 42.4174 19.563C42.1181 19.247 41.8022 19.0974 41.561 19.0641L40.732 18.8712ZM35.3923 28.9895C35.4163 28.9856 35.4411 28.9835 35.4664 28.9835C39.9729 29.0251 41.8687 26.4974 42.2096 22.4232C42.3094 21.2592 42.1098 20.5524 41.7606 20.1783C41.6691 20.0868 41.5777 20.0203 41.4945 19.987L41.3947 19.9538L36.1565 18.7315C36.1411 18.7264 36.113 18.7213 36.0741 18.7142C36.0501 18.7098 36.022 18.7046 35.9902 18.6983C35.7075 18.6484 35.4165 18.6401 35.1504 18.6983C34.743 18.7897 34.4853 19.0142 34.3522 19.4466C34.1753 20.0364 34.1901 20.4868 34.565 20.8475C34.6594 20.8823 34.7359 20.9449 34.7873 21.0232C35.0493 21.1965 35.4174 21.3476 35.9154 21.4837L39.366 22.2569C39.9397 22.39 39.7567 23.2464 39.183 23.1383L39.0749 23.1217C38.6426 23.0801 38.152 23.1134 37.703 23.2797C36.8632 23.5956 36.3394 24.319 36.2729 25.666C36.2563 25.9154 36.0484 26.0983 35.799 26.09C35.5495 26.0734 35.3583 25.8655 35.3749 25.6161C35.4414 24.1278 36.0235 23.1549 36.9547 22.6311L35.6992 22.3401C35.2662 22.2228 34.9012 22.0841 34.5977 21.9259C34.452 22.1542 34.2622 22.3525 34.0362 22.5064L33.9364 22.5729C33.8791 22.6117 33.8205 22.647 33.7609 22.6792C34.1641 23.4333 34.0577 24.3868 33.4374 25.0341L33.346 25.1255C32.5644 25.9237 31.2922 25.9404 30.4857 25.1671L29.8137 24.4973C30.3503 27.1333 32.6608 28.9167 35.3923 28.9895ZM33.8796 21.4096C33.7977 21.5523 33.6835 21.6763 33.5456 21.7664L33.4459 21.8246C32.9304 22.1738 32.2319 22.0408 31.8827 21.5253L29.9204 18.6068C29.3883 17.792 29.4548 16.9439 29.9703 16.5864L30.0618 16.5198C30.727 16.1374 31.2841 16.4284 31.8578 17.2682L32.3251 17.9657C32.3455 18.011 32.3734 18.0524 32.4072 18.0881L33.3997 19.5694C33.2648 20.2809 33.3867 20.905 33.8796 21.4096ZM39.8564 18.6674L36.381 17.8585C36.3756 17.8571 36.3688 17.8553 36.3608 17.8532C36.3198 17.8423 36.2456 17.8225 36.1482 17.8086C35.7574 17.7421 35.35 17.7338 34.9509 17.8169C34.4743 17.9247 34.0751 18.1642 33.7983 18.5485L33.1643 17.6024L32.1566 9.2944L32.1482 9.24451C31.9736 8.54608 32.406 7.7645 32.988 7.63978C33.3123 7.57326 33.6532 7.63146 33.9276 7.81439C34.202 7.99731 34.3932 8.28001 34.4597 8.60428L36.2232 16.136C36.2325 16.3238 36.3559 16.492 36.5473 16.5448C36.7885 16.6113 37.0379 16.4783 37.1044 16.2371L39.3411 8.57102C39.5323 7.86427 40.2474 7.44022 40.9458 7.61483C41.5444 7.79775 41.9186 8.42135 41.7856 9.05327L39.8564 18.6674ZM31.1344 22.0325C31.5363 22.6194 32.187 22.9306 32.8449 22.919C33.2038 23.3545 33.1846 23.9986 32.7806 24.4105L32.6974 24.5019C32.2651 24.9426 31.5583 24.9509 31.1176 24.5186L28.6232 22.0491C27.9331 21.359 27.8417 20.5109 28.274 20.0619L28.3572 19.9704C28.7023 19.6093 29.2643 19.5657 29.6693 19.8473L31.1344 22.0325ZM22.5369 40.6656C23.9504 40.6656 25.0313 39.7177 25.0313 38.3292C25.0313 37.0404 24.1167 36.4833 22.9942 36.1508C22.2791 35.9429 21.8302 35.7849 21.8302 35.2777C21.8302 34.8537 22.1378 34.5211 22.6284 34.5211C23.0441 34.5211 23.3517 34.7622 23.5762 35.128L24.7486 34.388C24.3828 33.5815 23.5596 33.1658 22.6699 33.1658C21.2564 33.1658 20.3585 34.1802 20.3585 35.3609C20.3585 36.3004 20.9239 37.0238 22.3124 37.4312C23.069 37.6474 23.5513 37.7971 23.5513 38.3957C23.5513 38.9611 23.1439 39.3103 22.5535 39.3103C21.9216 39.3103 21.4394 38.9029 21.1484 38.5287L20.1755 39.5016C20.6994 40.2166 21.5475 40.6656 22.5369 40.6656ZM34.4598 33.2573V34.5876C33.6699 34.5544 33.0962 34.9535 33.0962 35.8348V36.3753C33.4122 36.0427 33.8612 35.8764 34.4182 35.8764V37.2234C33.6367 37.24 33.0962 37.7389 33.0962 38.4373V40.5326H31.6827V35.7517C31.6827 34.4047 32.5308 33.2573 34.2519 33.2573H34.4598ZM46.0007 37.9634V36.7328C46.3166 37.0654 46.7573 37.2317 47.3227 37.2317V35.893C46.5577 35.8764 46.0007 35.3609 46.0007 34.6791V33.8892H44.5872V38.0465C44.5872 39.3935 45.4269 40.5409 47.1564 40.5409H47.3643V39.2106C46.5744 39.2355 46.0007 38.8447 46.0007 37.9634ZM25.5382 38.0133C25.5382 39.4683 26.7522 40.6656 28.2488 40.6656C29.7455 40.6656 30.9594 39.4683 30.9594 38.0133C30.9594 36.5582 29.7455 35.3609 28.2488 35.3609C26.7522 35.3609 25.5382 36.5582 25.5382 38.0133ZM50 39.6679C50 40.1917 49.5677 40.6158 49.0521 40.6158C48.5283 40.6158 48.1043 40.1917 48.1043 39.6679C48.1043 39.1441 48.5283 38.72 49.0521 38.72C49.576 38.72 50 39.1524 50 39.6679ZM28.2485 39.3353C28.9718 39.3353 29.5455 38.7616 29.5455 38.0133C29.5455 37.2649 28.9718 36.6912 28.2485 36.6912C27.5168 36.6912 26.9514 37.2649 26.9514 38.0133C26.9514 38.7699 27.5251 39.3353 28.2485 39.3353ZM34.834 38.0133C34.834 39.4683 36.048 40.6656 37.5446 40.6656C39.0412 40.6656 40.2552 39.4683 40.2552 38.0133C40.2552 36.5582 39.0412 35.3609 37.5446 35.3609C36.048 35.3609 34.834 36.5582 34.834 38.0133ZM37.5445 39.3353C38.2762 39.3353 38.8416 38.7616 38.8416 38.0133C38.8416 37.2649 38.2679 36.6912 37.5445 36.6912C36.8211 36.6912 36.2474 37.2649 36.2474 38.0133C36.2474 38.7699 36.8211 39.3353 37.5445 39.3353ZM42.392 35.5022V36.0759C42.6747 35.6186 43.132 35.4024 43.7722 35.4274V36.9407C42.9241 36.9407 42.4336 37.4063 42.4336 38.2377V40.5326H41.0201V35.5022H42.392Z" fill="white"/>
</g>
</svg>
